<svg id="Gradient" height="512" viewBox="0 0 512 512" width="512" xmlns="http://www.w3.org/2000/svg" xmlns:xlink="http://www.w3.org/1999/xlink"><linearGradient id="JShine" gradientUnits="userSpaceOnUse" x1="256" x2="256" y1="496" y2="16"><stop offset="0" stop-color="#12c2e9"/><stop offset=".056" stop-color="#19bfe9"/><stop offset=".137" stop-color="#2db6ea"/><stop offset=".235" stop-color="#4da7ea"/><stop offset=".344" stop-color="#7993eb"/><stop offset=".462" stop-color="#b279ed"/><stop offset=".497" stop-color="#c471ed"/><stop offset="1" stop-color="#f64f59"/></linearGradient><path d="m413.657 114.343-96-96a8 8 0 0 0 -5.657-2.343h-240a40.045 40.045 0 0 0 -40 40v400a40.045 40.045 0 0 0 40 40h400a8 8 0 0 0 8-8c0-28.822-5.5-56.851-15.9-81.056-8.949-20.825-21.161-38.064-35.6-50.35a63.932 63.932 0 0 0 -12.5-86.5v-150.094a8 8 0 0 0 -2.343-5.657zm-93.657-71.03 68.687 68.687h-44.687a24.027 24.027 0 0 1 -24-24zm-47.843 436.687h-200.157a24.028 24.028 0 0 1 -24-24v-400a24.028 24.028 0 0 1 24-24h232v56a40.045 40.045 0 0 0 40 40h56v132.687a63.99 63.99 0 0 0 -76.5 95.907c-14.437 12.286-26.65 29.525-35.6 50.35-9.438 21.956-14.821 47.066-15.743 73.056zm151.843-160a47.851 47.851 0 0 1 -12.679 32.492 8 8 0 0 0 1.237 11.929c29.663 21.179 49.363 65.963 51.287 115.579h-175.69c1.924-49.616 21.624-94.4 51.286-115.579a8 8 0 0 0 1.238-11.929 48 48 0 1 1 83.321-32.492zm-256-160h192a8 8 0 0 1 0 16h-192a8 8 0 0 1 0-16zm-88 56a8 8 0 0 1 8-8h160a8 8 0 0 1 0 16h-160a8 8 0 0 1 -8-8zm208 48a8 8 0 0 1 -8 8h-64a8 8 0 0 1 0-16h64a8 8 0 0 1 8 8zm-16 48a8 8 0 0 1 -8 8h-176a8 8 0 0 1 0-16h176a8 8 0 0 1 8 8zm-192-144a8 8 0 0 1 8-8h48a8 8 0 0 1 0 16h-48a8 8 0 0 1 -8-8zm288 48a8 8 0 0 1 -8 8h-80a8 8 0 0 1 0-16h80a8 8 0 0 1 8 8zm-288 48a8 8 0 0 1 8-8h96a8 8 0 0 1 0 16h-96a8 8 0 0 1 -8-8zm176 144a8 8 0 0 1 -8 8h-64a8 8 0 0 1 0-16h64a8 8 0 0 1 8 8zm-96 0a8 8 0 0 1 -8 8h-64a8 8 0 0 1 0-16h64a8 8 0 0 1 8 8zm-80-48a8 8 0 0 1 8-8h48a8 8 0 0 1 0 16h-48a8 8 0 0 1 -8-8zm0-240a8 8 0 0 1 8-8h96a8 8 0 0 1 0 16h-96a8 8 0 0 1 -8-8zm192 240a8 8 0 0 1 -8 8h-96a8 8 0 0 1 0-16h96a8 8 0 0 1 8 8z" fill="url(#JShine)"/></svg>