<svg id="Gradient" height="512" viewBox="0 0 512 512" width="512" xmlns="http://www.w3.org/2000/svg" xmlns:xlink="http://www.w3.org/1999/xlink"><linearGradient id="JShine" gradientUnits="userSpaceOnUse" x1="256" x2="256" y1="496" y2="16"><stop offset="0" stop-color="#12c2e9"/><stop offset=".056" stop-color="#19bfe9"/><stop offset=".137" stop-color="#2db6ea"/><stop offset=".235" stop-color="#4da7ea"/><stop offset=".344" stop-color="#7993eb"/><stop offset=".462" stop-color="#b279ed"/><stop offset=".497" stop-color="#c471ed"/><stop offset="1" stop-color="#f64f59"/></linearGradient><path d="m384 168a8 8 0 0 1 -8 8h-192a8 8 0 0 1 0-16h192a8 8 0 0 1 8 8zm-280 56h160a8 8 0 0 0 0-16h-160a8 8 0 0 0 0 16zm224 32h-96a8 8 0 0 0 0 16h96a8 8 0 0 0 0-16zm-16 48h-208a8 8 0 0 0 0 16h208a8 8 0 0 0 0-16zm-208-128h48a8 8 0 0 0 0-16h-48a8 8 0 0 0 0 16zm272 32h-80a8 8 0 0 0 0 16h80a8 8 0 0 0 0-16zm-272 64h96a8 8 0 0 0 0-16h-96a8 8 0 0 0 0 16zm208 128h-80a8 8 0 0 0 0 16h80a8 8 0 0 0 0-16zm-112 0h-96a8 8 0 0 0 0 16h96a8 8 0 0 0 0-16zm-96-32h64a8 8 0 0 0 0-16h-64a8 8 0 0 0 0 16zm0-240h96a8 8 0 0 0 0-16h-96a8 8 0 0 0 0 16zm208 224h-112a8 8 0 0 0 0 16h112a8 8 0 0 0 0-16zm88-24v96a8 8 0 0 0 16 0v-128a24 24 0 0 0 -48 0v144a40 40 0 0 0 80 0v-112a8 8 0 0 1 16 0v112a56.064 56.064 0 0 1 -56 56h-320a40.045 40.045 0 0 1 -40-40v-400a40.045 40.045 0 0 1 40-40h240a8 8 0 0 1 5.657 2.343l96 96a8 8 0 0 1 2.343 5.657v304a24 24 0 0 1 -48 0v-96a8 8 0 0 1 16 0zm-64-240a24.027 24.027 0 0 0 24 24h44.687l-68.687-68.687zm80 176.022v-136.022h-56a40.045 40.045 0 0 1 -40-40v-56h-232a24.028 24.028 0 0 0 -24 24v400a24.028 24.028 0 0 0 24 24h280.862a55.82 55.82 0 0 1 -16.862-40v-144a39.978 39.978 0 0 1 64-31.978z" fill="url(#JShine)"/></svg>