<?xml version="1.0"?>
<svg xmlns="http://www.w3.org/2000/svg" xmlns:xlink="http://www.w3.org/1999/xlink" id="Gradient" viewBox="0 0 512 512" width="512" height="512"><defs><linearGradient id="JShine" x1="256" y1="496" x2="256" y2="16" gradientUnits="userSpaceOnUse"><stop offset="0" stop-color="#12c2e9"/><stop offset="0.056" stop-color="#19bfe9"/><stop offset="0.137" stop-color="#2db6ea"/><stop offset="0.235" stop-color="#4da7ea"/><stop offset="0.344" stop-color="#7993eb"/><stop offset="0.462" stop-color="#b279ed"/><stop offset="0.497" stop-color="#c471ed"/><stop offset="1" stop-color="#f64f59"/></linearGradient></defs><path d="M392,136a56.021,56.021,0,0,0-72.043-53.66Q320,81.172,320,80a64,64,0,0,0-128,0q0,1.17.043,2.34A56,56,0,1,0,176,192H336A56.063,56.063,0,0,0,392,136Zm-56,40H176a40,40,0,1,1,21.9-73.466,8,8,0,0,0,12.063-8.949,48,48,0,1,1,92.075,0,8,8,0,0,0,12.063,8.95A40,40,0,1,1,336,176Zm-40,48H184a40.045,40.045,0,0,0-40,40V456a40.045,40.045,0,0,0,40,40H328a40.045,40.045,0,0,0,40-40V296a8,8,0,0,0-2.343-5.657l-64-64A8,8,0,0,0,296,224Zm56,232a24.028,24.028,0,0,1-24,24H184a24.028,24.028,0,0,1-24-24V264a24.028,24.028,0,0,1,24-24H288v24a40.045,40.045,0,0,0,40,40h24ZM304,251.313,340.687,288H328a24.028,24.028,0,0,1-24-24ZM320,344a8,8,0,0,1-8,8H248a8,8,0,0,1,0-16h64A8,8,0,0,1,320,344ZM192,392a8,8,0,0,1,8-8h64a8,8,0,0,1,0,16H200A8,8,0,0,1,192,392Zm128,48a8,8,0,0,1-8,8H264a8,8,0,0,1,0-16h48A8,8,0,0,1,320,440ZM192,344a8,8,0,0,1,8-8h16a8,8,0,0,1,0,16H200A8,8,0,0,1,192,344Zm128,48a8,8,0,0,1-8,8H296a8,8,0,0,1,0-16h16A8,8,0,0,1,320,392Zm-80,48a8,8,0,0,1-8,8H200a8,8,0,0,1,0-16h32A8,8,0,0,1,240,440ZM192,296a8,8,0,0,1,8-8h32a8,8,0,0,1,0,16H200A8,8,0,0,1,192,296ZM449.96,168A205.757,205.757,0,0,1,488,287.013a203.7,203.7,0,0,1-41.622,123.922c-2.645,3.494-5.444,6.956-8.32,10.291a8,8,0,0,1-12.116-10.452c2.655-3.077,5.239-6.272,7.679-9.5A187.82,187.82,0,0,0,472,287.013a189.715,189.715,0,0,0-32-105.291V192a8,8,0,0,1-16,0V160a8,8,0,0,1,8-8h32a8,8,0,0,1,0,16ZM24,288.987A203.7,203.7,0,0,1,65.622,165.065c2.645-3.494,5.444-6.956,8.32-10.291a8,8,0,0,1,12.116,10.452c-2.655,3.077-5.239,6.272-7.679,9.5A187.82,187.82,0,0,0,40,288.987,189.715,189.715,0,0,0,72,394.278V384a8,8,0,0,1,16,0v32a8,8,0,0,1-8,8H48a8,8,0,0,1,0-16H62.04A205.75,205.75,0,0,1,24,288.987Z" style="fill:url(#JShine)"/></svg>
