<svg id="Gradient" height="512" viewBox="0 0 512 512" width="512" xmlns="http://www.w3.org/2000/svg" xmlns:xlink="http://www.w3.org/1999/xlink"><linearGradient id="JShine" gradientUnits="userSpaceOnUse" x1="256" x2="256" y1="496" y2="16"><stop offset="0" stop-color="#12c2e9"/><stop offset=".056" stop-color="#19bfe9"/><stop offset=".137" stop-color="#2db6ea"/><stop offset=".235" stop-color="#4da7ea"/><stop offset=".344" stop-color="#7993eb"/><stop offset=".462" stop-color="#b279ed"/><stop offset=".497" stop-color="#c471ed"/><stop offset="1" stop-color="#f64f59"/></linearGradient><path d="m360 32h128a8 8 0 0 0 0-16h-128a40.045 40.045 0 0 0 -40 40v184h-32v-120a8 8 0 0 0 -2.343-5.657l-96-96a8 8 0 0 0 -5.657-2.343h-160a8 8 0 0 0 0 16h152v56a40.045 40.045 0 0 0 40 40h56v112h-56a8 8 0 0 0 -8 8v80a8 8 0 0 0 8 8h56v120a24.028 24.028 0 0 1 -24 24h-224a8 8 0 0 0 0 16h224a40.045 40.045 0 0 0 40-40v-120h32v120a40.045 40.045 0 0 0 40 40h128a8 8 0 0 0 0-16h-128a24.028 24.028 0 0 1 -24-24v-60.512l109.443-101.626a8 8 0 0 0 0-11.724l-109.443-101.626v-124.512a24.028 24.028 0 0 1 24-24zm-144 80a24.027 24.027 0 0 1 -24-24v-44.687l68.687 68.687zm212.243 176-92.243 85.654v-45.654a8 8 0 0 0 -8-8h-104v-64h104a8 8 0 0 0 8-8v-45.654zm-412.243-120a8 8 0 0 1 8-8h208a8 8 0 0 1 0 16h-208a8 8 0 0 1 -8-8zm0 48a8 8 0 0 1 8-8h96a8 8 0 0 1 0 16h-96a8 8 0 0 1 -8-8zm152 40a8 8 0 0 1 0 16h-80a8 8 0 0 1 0-16zm-152 56a8 8 0 0 1 8-8h144a8 8 0 0 1 0 16h-144a8 8 0 0 1 -8-8zm192-88h-56a8 8 0 0 1 0-16h56a8 8 0 0 1 0 16zm-192 40a8 8 0 0 1 8-8h32a8 8 0 0 1 0 16h-32a8 8 0 0 1 -8-8zm64 144a8 8 0 0 1 8-8h80a8 8 0 0 1 0 16h-80a8 8 0 0 1 -8-8zm-64 0a8 8 0 0 1 8-8h32a8 8 0 0 1 0 16h-32a8 8 0 0 1 -8-8zm0-288a8 8 0 0 1 8-8h40a8 8 0 0 1 0 16h-40a8 8 0 0 1 -8-8zm120 248h-80a8 8 0 0 1 0-16h80a8 8 0 0 1 0 16zm72-8a8 8 0 0 1 -8 8h-32a8 8 0 0 1 0-16h32a8 8 0 0 1 8 8zm-8 40h32a8 8 0 0 1 0 16h-32a8 8 0 0 1 0-16zm-184-40a8 8 0 1 1 8 8 8 8 0 0 1 -8-8z" fill="url(#JShine)"/></svg>