<svg id="Gradient" height="512" viewBox="0 0 512 512" width="512" xmlns="http://www.w3.org/2000/svg" xmlns:xlink="http://www.w3.org/1999/xlink"><linearGradient id="JShine" gradientUnits="userSpaceOnUse" x1="256" x2="256" y1="496" y2="32"><stop offset="0" stop-color="#12c2e9"/><stop offset=".056" stop-color="#19bfe9"/><stop offset=".137" stop-color="#2db6ea"/><stop offset=".235" stop-color="#4da7ea"/><stop offset=".344" stop-color="#7993eb"/><stop offset=".462" stop-color="#b279ed"/><stop offset=".497" stop-color="#c471ed"/><stop offset="1" stop-color="#f64f59"/></linearGradient><path d="m413.657 34.343a8 8 0 0 0 -5.657-2.343h-208a40.045 40.045 0 0 0 -40 40v8h-104a40.045 40.045 0 0 0 -40 40v336a40.045 40.045 0 0 0 40 40h256a40.045 40.045 0 0 0 39.872-36.95l9.208-11.05h94.92a40.045 40.045 0 0 0 40-40v-288a8 8 0 0 0 -2.343-5.657zm2.343 24.97 52.687 52.687h-28.687a24.027 24.027 0 0 1 -24-24zm-104 420.687h-256a24.027 24.027 0 0 1 -24-24v-336a24.027 24.027 0 0 1 24-24h200v40a40.045 40.045 0 0 0 40 40h40v80h-24a8 8 0 0 0 -8 8v88h-40a8 8 0 0 0 -6.146 13.121l77.989 93.587a24.031 24.031 0 0 1 -23.843 21.292zm-40-344v-28.687l52.687 52.687h-28.687a24.027 24.027 0 0 1 -24-24zm72 307.5-62.92-75.5h30.92a8 8 0 0 0 8-8v-88h48v88a8 8 0 0 0 8 8h30.92zm136-35.5a24.027 24.027 0 0 1 -24 24h-81.586l55.732-66.879a8 8 0 0 0 -6.146-13.121h-40v-88a8 8 0 0 0 -8-8h-24v-88a8 8 0 0 0 -2.343-5.657l-80-80a8 8 0 0 0 -5.657-2.343h-88v-8a24.027 24.027 0 0 1 24-24h200v40a40.045 40.045 0 0 0 40 40h40zm-40-248a8 8 0 0 1 0 16h-48a8 8 0 0 1 0-16zm8 104a8 8 0 0 1 -8 8h-16a8 8 0 0 1 0-16h16a8 8 0 0 1 8 8zm0 48a8 8 0 0 1 -8 8h-16a8 8 0 0 1 0-16h16a8 8 0 0 1 8 8zm0-96a8 8 0 0 1 -8 8h-48a8 8 0 0 1 0-16h48a8 8 0 0 1 8 8zm-296-8h144a8 8 0 0 1 0 16h-144a8 8 0 0 1 0-16zm-88 56a8 8 0 0 1 8-8h128a8 8 0 0 1 0 16h-128a8 8 0 0 1 -8-8zm208 48a8 8 0 0 1 -8 8h-64a8 8 0 0 1 0-16h64a8 8 0 0 1 8 8zm-208 48a8 8 0 0 1 8-8h144a8 8 0 0 1 0 16h-144a8 8 0 0 1 -8-8zm0-144a8 8 0 0 1 8-8h48a8 8 0 0 1 0 16h-48a8 8 0 0 1 -8-8zm208 48a8 8 0 0 1 -8 8h-32a8 8 0 0 1 0-16h32a8 8 0 0 1 8 8zm-208 48a8 8 0 0 1 8-8h96a8 8 0 0 1 0 16h-96a8 8 0 0 1 -8-8zm64 96a8 8 0 0 1 -8 8h-48a8 8 0 0 1 0-16h48a8 8 0 0 1 8 8zm-64-240a8 8 0 0 1 8-8h96a8 8 0 0 1 0 16h-96a8 8 0 0 1 -8-8zm192 240a8 8 0 0 1 -8 8h-96a8 8 0 0 1 0-16h96a8 8 0 0 1 8 8zm128-288a8 8 0 0 1 -8 8h-16a8 8 0 0 1 0-16h16a8 8 0 0 1 8 8z" fill="url(#JShine)"/></svg>