<svg id="Gradient" height="512" viewBox="0 0 512 512" width="512" xmlns="http://www.w3.org/2000/svg" xmlns:xlink="http://www.w3.org/1999/xlink"><linearGradient id="JShine" gradientUnits="userSpaceOnUse" x1="256" x2="256" y1="496" y2="16"><stop offset="0" stop-color="#12c2e9"/><stop offset=".056" stop-color="#19bfe9"/><stop offset=".137" stop-color="#2db6ea"/><stop offset=".235" stop-color="#4da7ea"/><stop offset=".344" stop-color="#7993eb"/><stop offset=".462" stop-color="#b279ed"/><stop offset=".497" stop-color="#c471ed"/><stop offset="1" stop-color="#f64f59"/></linearGradient><path d="m496 168a8 8 0 0 1 -8 8h-128a8 8 0 0 1 0-16h128a8 8 0 0 1 8 8zm-48 48a8 8 0 0 0 -8-8h-128a8 8 0 0 0 0 16h128a8 8 0 0 0 8-8zm40 40h-80a8 8 0 0 0 0 16h80a8 8 0 0 0 0-16zm0 48h-144a8 8 0 0 0 0 16h144a8 8 0 0 0 0-16zm-160-144h-48a8 8 0 0 0 0 16h48a8 8 0 0 0 0-16zm160 48h-16a8 8 0 0 0 0 16h16a8 8 0 0 0 0-16zm-144 48a8 8 0 0 0 0 16h32a8 8 0 0 0 0-16zm144 144h-80a8 8 0 0 0 0 16h80a8 8 0 0 0 0-16zm-216 8a8 8 0 0 0 8 8h96a8 8 0 0 0 0-16h-96a8 8 0 0 0 -8 8zm72-56h-32a8 8 0 0 0 0 16h32a8 8 0 0 0 0-16zm40-232a8 8 0 0 0 -8-8h-96a8 8 0 0 0 0 16h96a8 8 0 0 0 8-8zm72 248a8 8 0 0 0 0-16h-80a8 8 0 0 0 0 16zm32-16a8 8 0 1 0 8 8 8 8 0 0 0 -8-8zm8 136a8 8 0 0 1 -8 8h-224a40.045 40.045 0 0 1 -40-40v-120h-32v120a40.045 40.045 0 0 1 -40 40h-128a8 8 0 0 1 0-16h128a24.028 24.028 0 0 0 24-24v-60.512l-109.443-101.626a8 8 0 0 1 0-11.724l109.443-101.626v-52.512h-56a40.045 40.045 0 0 1 -40-40v-56h-56a8 8 0 0 1 0-16h64a8 8 0 0 1 5.657 2.343l96 96a8 8 0 0 1 2.343 5.657v120h32v-184a40.045 40.045 0 0 1 40-40h224a8 8 0 0 1 0 16h-224a24.028 24.028 0 0 0 -24 24v184h56a8 8 0 0 1 8 8v80a8 8 0 0 1 -8 8h-56v120a24.028 24.028 0 0 0 24 24h224a8 8 0 0 1 8 8zm-331.314-376-68.686-68.687v44.687a24.027 24.027 0 0 0 24 24zm123.314 208v-64h-104a8 8 0 0 1 -8-8v-45.654l-92.243 85.654 92.243 85.654v-45.654a8 8 0 0 1 8-8z" fill="url(#JShine)"/></svg>