<svg id="Gradient" height="512" viewBox="0 0 512 512" width="512" xmlns="http://www.w3.org/2000/svg" xmlns:xlink="http://www.w3.org/1999/xlink"><linearGradient id="JShine" gradientUnits="userSpaceOnUse" x1="256" x2="256" y1="464" y2="48"><stop offset="0" stop-color="#12c2e9"/><stop offset=".056" stop-color="#19bfe9"/><stop offset=".137" stop-color="#2db6ea"/><stop offset=".235" stop-color="#4da7ea"/><stop offset=".344" stop-color="#7993eb"/><stop offset=".462" stop-color="#b279ed"/><stop offset=".497" stop-color="#c471ed"/><stop offset="1" stop-color="#f64f59"/></linearGradient><path d="m496 64a8 8 0 0 0 0-16 40.045 40.045 0 0 0 -40 40v208h-32v-160a8 8 0 0 0 -2.343-5.657l-80-80a8 8 0 0 0 -5.657-2.343h-208a40.045 40.045 0 0 0 -40 40v112h-32v-112a40.045 40.045 0 0 0 -40-40 8 8 0 0 0 0 16 24.027 24.027 0 0 1 24 24v112h-16a8 8 0 0 0 -8 8v48a8 8 0 0 0 8 8h16v160a24.028 24.028 0 0 1 -24 24 8 8 0 0 0 0 16 40.045 40.045 0 0 0 40-40v-160h32v160a40.045 40.045 0 0 0 40 40h256a40.045 40.045 0 0 0 40-40v-64h32v64a40.045 40.045 0 0 0 40 40 8 8 0 0 0 0-16 24.028 24.028 0 0 1 -24-24v-64h16a8 8 0 0 0 8-8v-48a8 8 0 0 0 -8-8h-16v-208a24.027 24.027 0 0 1 24-24zm-152 11.313 52.686 52.687h-28.686a24.027 24.027 0 0 1 -24-24zm-248 172.687h-64v-32h64a8 8 0 0 0 8-8v-8l42.667 32-42.667 32v-8a8 8 0 0 0 -8-8zm312 176a24.027 24.027 0 0 1 -24 24h-256a24.027 24.027 0 0 1 -24-24v-140l60.8-45.6a8 8 0 0 0 0-12.8l-60.8-45.6v-92a24.027 24.027 0 0 1 24-24h200v40a40.045 40.045 0 0 0 40 40h40v132l-60.8 45.6a8 8 0 0 0 0 12.8l60.8 45.6zm72-112v32h-64a8 8 0 0 0 -8 8v8l-42.667-32 42.667-32v8a8 8 0 0 0 8 8zm-256-136h144a8 8 0 0 1 0 16h-144a8 8 0 0 1 0-16zm48 64h-64a8 8 0 0 1 0-16h64a8 8 0 0 1 0 16zm88 40a8 8 0 0 1 -8 8h-80a8 8 0 0 1 0-16h80a8 8 0 0 1 8 8zm-48 48a8 8 0 0 1 -8 8h-160a8 8 0 0 1 0-16h160a8 8 0 0 1 8 8zm-120-136h-32a8 8 0 0 1 0-16h32a8 8 0 0 1 0 16zm184 40a8 8 0 0 1 -8 8h-64a8 8 0 0 1 0-16h64a8 8 0 0 1 8 8zm-224 48a8 8 0 0 1 8-8h80a8 8 0 0 1 0 16h-80a8 8 0 0 1 -8-8zm48 96a8 8 0 0 1 -8 8h-48a8 8 0 0 1 0-16h48a8 8 0 0 1 8 8zm40-232h-96a8 8 0 0 1 0-16h96a8 8 0 0 1 0 16zm72 232a8 8 0 0 1 -8 8h-80a8 8 0 0 1 0-16h80a8 8 0 0 1 8 8zm24-8h16a8 8 0 0 1 0 16h-16a8 8 0 0 1 0-16z" fill="url(#JShine)"/></svg>