<?xml version="1.0"?>
<svg xmlns="http://www.w3.org/2000/svg" xmlns:xlink="http://www.w3.org/1999/xlink" id="Gradient" viewBox="0 0 512 512" width="512" height="512"><defs><linearGradient id="JShine" x1="256" y1="496" x2="256" y2="16" gradientUnits="userSpaceOnUse"><stop offset="0" stop-color="#12c2e9"/><stop offset="0.056" stop-color="#19bfe9"/><stop offset="0.137" stop-color="#2db6ea"/><stop offset="0.235" stop-color="#4da7ea"/><stop offset="0.344" stop-color="#7993eb"/><stop offset="0.462" stop-color="#b279ed"/><stop offset="0.497" stop-color="#c471ed"/><stop offset="1" stop-color="#f64f59"/></linearGradient></defs><path d="M408,120a8,8,0,0,0-2.343-5.657l-96-96A8,8,0,0,0,304,16H64A40.045,40.045,0,0,0,24,56V456a40.045,40.045,0,0,0,40,40H400a8,8,0,0,0,8-8V465.986q1.679-.658,3.341-1.39l15.57,15.57a8,8,0,0,0,11.315,0l33.941-33.941a8,8,0,0,0,0-11.315l-15.57-15.57q.731-1.661,1.39-3.341H480a8,8,0,0,0,8-8V360a8,8,0,0,0-8-8H457.986q-.658-1.679-1.39-3.341l15.57-15.57a8,8,0,0,0,0-11.315l-33.941-33.941a8,8,0,0,0-11.315,0l-15.57,15.57q-1.661-.731-3.341-1.39V120ZM312,43.313,380.687,112H336a24.028,24.028,0,0,1-24-24ZM64,480a24.028,24.028,0,0,1-24-24V56A24.028,24.028,0,0,1,64,32H296V88a40.045,40.045,0,0,0,40,40h56V272H352a8,8,0,0,0-8,8v22.014q-1.679.658-3.341,1.39l-15.57-15.57a8,8,0,0,0-11.315,0l-33.941,33.941a8,8,0,0,0,0,11.315l15.57,15.57q-.731,1.661-1.39,3.341H272a8,8,0,0,0-8,8v48a8,8,0,0,0,8,8h22.014q.658,1.679,1.39,3.341l-15.57,15.57a8,8,0,0,0,0,11.315L313.607,480Zm280,0H325.255l15.4-15.4q1.661.731,3.341,1.39Zm65.284-159.84a8,8,0,0,0,9.362-1.433L432.568,304.8,455.2,327.432l-13.923,13.922a8,8,0,0,0-1.433,9.362A71.672,71.672,0,0,1,444.7,362.4a8,8,0,0,0,7.633,5.6H472v32H452.332a8,8,0,0,0-7.633,5.6,71.672,71.672,0,0,1-4.859,11.68,8,8,0,0,0,1.433,9.362L455.2,440.568,432.568,463.2l-13.922-13.923a8,8,0,0,0-9.362-1.433A71.672,71.672,0,0,1,397.6,452.7a8,8,0,0,0-5.6,7.633V480H360V460.332a8,8,0,0,0-5.6-7.633,71.672,71.672,0,0,1-11.68-4.859,8,8,0,0,0-9.362,1.433L319.432,463.2,296.8,440.568l13.923-13.922a8,8,0,0,0,1.433-9.362A71.672,71.672,0,0,1,307.3,405.6a8,8,0,0,0-7.633-5.6H280V368h19.668a8,8,0,0,0,7.633-5.6,71.672,71.672,0,0,1,4.859-11.68,8,8,0,0,0-1.433-9.362L296.8,327.432,319.432,304.8l13.922,13.923a8,8,0,0,0,9.362,1.433A71.672,71.672,0,0,1,354.4,315.3a8,8,0,0,0,5.6-7.633V288h32v19.668a8,8,0,0,0,5.6,7.633A71.672,71.672,0,0,1,409.284,320.16ZM160,160H352a8,8,0,0,1,0,16H160a8,8,0,0,1,0-16ZM72,216a8,8,0,0,1,8-8H240a8,8,0,0,1,0,16H80A8,8,0,0,1,72,216Zm224,48a8,8,0,0,1-8,8H208a8,8,0,0,1,0-16h80A8,8,0,0,1,296,264Zm-40,48a8,8,0,0,1-8,8H232a8,8,0,0,1,0-16h16A8,8,0,0,1,256,312ZM72,312a8,8,0,0,1,8-8H200a8,8,0,0,1,0,16H80A8,8,0,0,1,72,312Zm0-144a8,8,0,0,1,8-8h48a8,8,0,0,1,0,16H80A8,8,0,0,1,72,168Zm288,48a8,8,0,0,1-8,8H272a8,8,0,0,1,0-16h80A8,8,0,0,1,360,216ZM72,264a8,8,0,0,1,8-8h96a8,8,0,0,1,0,16H80A8,8,0,0,1,72,264ZM232,408a8,8,0,0,1-8,8H192a8,8,0,0,1,0-16h32A8,8,0,0,1,232,408Zm-64,0a8,8,0,0,1-8,8H80a8,8,0,0,1,0-16h80A8,8,0,0,1,168,408ZM72,360a8,8,0,0,1,8-8h48a8,8,0,0,1,0,16H80A8,8,0,0,1,72,360Zm0-240a8,8,0,0,1,8-8h96a8,8,0,0,1,0,16H80A8,8,0,0,1,72,120ZM232,360a8,8,0,0,1-8,8H160a8,8,0,0,1,0-16h64A8,8,0,0,1,232,360Zm112,24a32,32,0,1,0,32-32A32.036,32.036,0,0,0,344,384Zm48,0a16,16,0,1,1-16-16A16.019,16.019,0,0,1,392,384Z" style="fill:url(#JShine)"/></svg>
