<?xml version="1.0"?>
<svg xmlns="http://www.w3.org/2000/svg" xmlns:xlink="http://www.w3.org/1999/xlink" id="Gradient" viewBox="0 0 512 512" width="512" height="512"><defs><linearGradient id="JShine" x1="256" y1="496" x2="256" y2="15.636" gradientUnits="userSpaceOnUse"><stop offset="0" stop-color="#12c2e9"/><stop offset="0.056" stop-color="#19bfe9"/><stop offset="0.137" stop-color="#2db6ea"/><stop offset="0.235" stop-color="#4da7ea"/><stop offset="0.344" stop-color="#7993eb"/><stop offset="0.462" stop-color="#b279ed"/><stop offset="0.497" stop-color="#c471ed"/><stop offset="1" stop-color="#f64f59"/></linearGradient></defs><path d="M413.657,130.343A8,8,0,0,0,408,128H336V48h-.008c0-.061.008-.121.008-.183,0-11.806-15.331-19.283-51.263-25-29.111-4.63-67.728-7.181-108.737-7.181S96.374,18.187,67.263,22.817C31.331,28.534,16,36.011,16,47.817c0,.062.007.122.008.183H16V288c0,11.76,15.334,19.2,51.272,24.873C96.381,317.469,134.994,320,176,320c10.814,0,21.525-.185,32-.536V456a40.045,40.045,0,0,0,40,40H456a40.045,40.045,0,0,0,40-40V216a8,8,0,0,0-2.343-5.657ZM416,155.313,468.687,208H440a24.028,24.028,0,0,1-24-24ZM76.363,37.633c27.439-3.867,62.824-6,99.637-6s72.2,2.13,99.637,6c26.2,3.692,37.414,7.83,41.981,10.184-4.567,2.355-15.78,6.493-41.981,10.186C248.2,61.87,212.813,64,176,64s-72.2-2.13-99.637-6c-26.2-3.693-37.414-7.831-41.981-10.186C38.949,45.463,50.162,41.325,76.363,37.633ZM208,303.457c-10.466.357-21.18.543-32,.543-36.8,0-72.174-2.112-99.609-5.947-33.042-4.619-42.278-9.947-44.391-11.54V224.4c8.249,3.284,19.861,6.043,35.272,8.477C96.381,237.469,134.994,240,176,240c10.806,0,21.527-.179,32-.53ZM208,168v55.461c-10.465.357-21.187.539-32,.539-36.8,0-72.174-2.112-99.609-5.947-33.042-4.62-42.277-9.946-44.391-11.541V144.4c8.249,3.284,19.861,6.043,35.272,8.477C96.381,157.469,134.994,160,176,160c11.13,0,22.158-.192,32.933-.564A39.959,39.959,0,0,0,208,168Zm8.724-24.893c-13.208.584-26.878.893-40.724.893-36.8,0-72.174-2.112-99.609-5.947-33.042-4.619-42.277-9.946-44.391-11.54V64.289c8.247,3.3,19.856,6.077,35.263,8.528C96.375,77.449,134.991,80,176,80s79.625-2.551,108.737-7.183c15.407-2.451,27.016-5.227,35.263-8.528V128H248A39.937,39.937,0,0,0,216.724,143.107ZM480,456a24.028,24.028,0,0,1-24,24H248a24.028,24.028,0,0,1-24-24V168a24.028,24.028,0,0,1,24-24H400v40a40.045,40.045,0,0,0,40,40h40ZM440,256a8,8,0,0,1,0,16H328a8,8,0,0,1,0-16Zm8,152a8,8,0,0,1-8,8H408a8,8,0,0,1,0-16h32A8,8,0,0,1,448,408ZM256,264a8,8,0,0,1,8-8h32a8,8,0,0,1,0,16H264A8,8,0,0,1,256,264Zm0,96a8,8,0,0,1,8-8h80a8,8,0,0,1,0,16H264A8,8,0,0,1,256,360Zm0-144a8,8,0,0,1,8-8h48a8,8,0,0,1,0,16H264A8,8,0,0,1,256,216ZM448,360a8,8,0,0,1-8,8H376a8,8,0,0,1,0-16h64A8,8,0,0,1,448,360Zm-64,48a8,8,0,0,1-8,8H264a8,8,0,0,1,0-16H376A8,8,0,0,1,384,408ZM256,312a8,8,0,0,1,8-8H384a8,8,0,0,1,0,16H264A8,8,0,0,1,256,312Zm192,0a8,8,0,0,1-8,8H416a8,8,0,0,1,0-16h24A8,8,0,0,1,448,312Z" style="fill:url(#JShine)"/></svg>
