<svg id="Gradient" height="512" viewBox="0 0 512 512" width="512" xmlns="http://www.w3.org/2000/svg" xmlns:xlink="http://www.w3.org/1999/xlink"><linearGradient id="JShine" gradientUnits="userSpaceOnUse" x1="256" x2="256" y1="496" y2="16"><stop offset="0" stop-color="#12c2e9"/><stop offset=".056" stop-color="#19bfe9"/><stop offset=".137" stop-color="#2db6ea"/><stop offset=".235" stop-color="#4da7ea"/><stop offset=".344" stop-color="#7993eb"/><stop offset=".462" stop-color="#b279ed"/><stop offset=".497" stop-color="#c471ed"/><stop offset="1" stop-color="#f64f59"/></linearGradient><path d="m488 208h-24v-88a8 8 0 0 0 -2.343-5.657l-96-96a8 8 0 0 0 -5.657-2.343h-240a40.045 40.045 0 0 0 -40 40v152h-56a8 8 0 0 0 -8 8v96a8 8 0 0 0 8 8h56v136a40.045 40.045 0 0 0 40 40h304a40.045 40.045 0 0 0 40-40v-136h24a8 8 0 0 0 8-8v-96a8 8 0 0 0 -8-8zm-120-164.687 68.687 68.687h-44.687a24.028 24.028 0 0 1 -24-24zm-272 12.687a24.027 24.027 0 0 1 24-24h232v56a40.045 40.045 0 0 0 40 40h56v80h-352zm352 400a24.028 24.028 0 0 1 -24 24h-304a24.027 24.027 0 0 1 -24-24v-136h352zm32-152h-448v-80h448zm-64-136a8 8 0 0 1 -8 8h-192a8 8 0 0 1 0-16h192a8 8 0 0 1 8 8zm-160 96a8 8 0 0 1 8-8h144a8 8 0 0 1 0 16h-144a8 8 0 0 1 -8-8zm-64-96a8 8 0 0 1 -8 8h-48a8 8 0 0 1 0-16h48a8 8 0 0 1 8 8zm-64 96a8 8 0 0 1 8-8h96a8 8 0 0 1 0 16h-96a8 8 0 0 1 -8-8zm224 144a8 8 0 0 1 -8 8h-80a8 8 0 0 1 0-16h80a8 8 0 0 1 8 8zm-224 0a8 8 0 0 1 8-8h96a8 8 0 0 1 0 16h-96a8 8 0 0 1 -8-8zm0-48a8 8 0 0 1 8-8h64a8 8 0 0 1 0 16h-64a8 8 0 0 1 -8-8zm0-240a8 8 0 0 1 8-8h96a8 8 0 0 1 0 16h-96a8 8 0 0 1 -8-8zm96 240a8 8 0 0 1 8-8h80a8 8 0 0 1 0 16h-80a8 8 0 0 1 -8-8zm112 0a8 8 0 0 1 8-8h64a8 8 0 0 1 0 16h-64a8 8 0 0 1 -8-8zm80 48a8 8 0 0 1 -8 8h-32a8 8 0 0 1 0-16h32a8 8 0 0 1 8 8zm-344-120a24 24 0 1 0 -24-24 24.027 24.027 0 0 0 24 24zm0-32a8 8 0 1 1 -8 8 8.009 8.009 0 0 1 8-8z" fill="url(#JShine)"/></svg>