<svg id="Gradient" height="512" viewBox="0 0 512 512" width="512" xmlns="http://www.w3.org/2000/svg" xmlns:xlink="http://www.w3.org/1999/xlink"><linearGradient id="JShine" gradientUnits="userSpaceOnUse" x1="256" x2="256" y1="496" y2="16"><stop offset="0" stop-color="#12c2e9"/><stop offset=".056" stop-color="#19bfe9"/><stop offset=".137" stop-color="#2db6ea"/><stop offset=".235" stop-color="#4da7ea"/><stop offset=".344" stop-color="#7993eb"/><stop offset=".462" stop-color="#b279ed"/><stop offset=".497" stop-color="#c471ed"/><stop offset="1" stop-color="#f64f59"/></linearGradient><path d="m413.657 114.343-96-96a8 8 0 0 0 -5.657-2.343h-240a40.045 40.045 0 0 0 -40 40v400a40.045 40.045 0 0 0 40 40h304a40.045 40.045 0 0 0 40-40v-79.764l40.97-40.97 11.313-11.315a40 40 0 0 0 -52.283-60.277v-143.674a8 8 0 0 0 -2.343-5.657zm-93.99-71.363 69.02 69.02h-45.02a24.027 24.027 0 0 1 -24-24zm-247.667 437.02a24.028 24.028 0 0 1 -24-24v-400a24.028 24.028 0 0 1 24-24h231.667v56a40.045 40.045 0 0 0 40 40h56.333v151.1l-135.362 135.361a7.955 7.955 0 0 0 -1.927 3.129h-.006l-20.805 62.41zm201.79-45.072 26.949 26.949-40.423 13.474zm126.21 21.072a24.028 24.028 0 0 1 -24 24h-79.033l21.112-7.037v-.008a7.98 7.98 0 0 0 3.129-1.925l78.792-78.794zm23.029-177.3a24 24 0 0 1 33.942 33.941l-5.658 5.657-33.94-33.941zm16.971 50.908-124.451 124.452-33.941-33.942 124.451-124.451zm-272.333-169.608h192a8 8 0 0 1 0 16h-192a8 8 0 0 1 0-16zm-88 56a8 8 0 0 1 8-8h160a8 8 0 1 1 0 16h-160a8 8 0 0 1 -8-8zm288.333 48a8 8 0 0 1 -8 8h-144.333a8 8 0 0 1 0-16h144.333a8 8 0 0 1 8 8zm-288.333 48a8 8 0 0 1 8-8h144a8 8 0 1 1 0 16h-144a8 8 0 0 1 -8-8zm0-144a8 8 0 0 1 8-8h48a8 8 0 1 1 0 16h-48a8 8 0 0 1 -8-8zm200 56a8 8 0 0 1 0-16h80a8 8 0 0 1 0 16zm-200 40a8 8 0 0 1 8-8h96a8 8 0 1 1 0 16h-96a8 8 0 0 1 -8-8zm160.333 144a8 8 0 0 1 -8 8h-48.333a8 8 0 0 1 0-16h48.333a8 8 0 0 1 8 8zm-80.333 0a8 8 0 0 1 -8 8h-64a8 8 0 0 1 0-16h64a8 8 0 0 1 8 8zm-80-48a8 8 0 0 1 8-8h48a8 8 0 1 1 0 16h-48a8 8 0 0 1 -8-8zm0-240a8 8 0 0 1 8-8h96a8 8 0 1 1 0 16h-96a8 8 0 0 1 -8-8zm184.333 248h-96.333a8 8 0 0 1 0-16h96.333a8 8 0 0 1 0 16zm56-56a8 8 0 0 1 -8 8h-48a8 8 0 0 1 0-16h48a8 8 0 0 1 8 8z" fill="url(#JShine)"/></svg>