<?xml version="1.0"?>
<svg xmlns="http://www.w3.org/2000/svg" xmlns:xlink="http://www.w3.org/1999/xlink" id="Gradient" viewBox="0 0 512 512" width="512" height="512"><defs><linearGradient id="JShine" x1="256" y1="496" x2="256" y2="16" gradientUnits="userSpaceOnUse"><stop offset="0" stop-color="#12c2e9"/><stop offset="0.056" stop-color="#19bfe9"/><stop offset="0.137" stop-color="#2db6ea"/><stop offset="0.235" stop-color="#4da7ea"/><stop offset="0.344" stop-color="#7993eb"/><stop offset="0.462" stop-color="#b279ed"/><stop offset="0.497" stop-color="#c471ed"/><stop offset="1" stop-color="#f64f59"/></linearGradient></defs><path d="M67.984,254.919a8,8,0,0,0,7.985.027l52.283-29.876,60.17,30.085a8,8,0,0,0,7.156,0L256,224.944l60.422,30.211a8,8,0,0,0,7.156,0l60.17-30.085,52.283,29.876A8,8,0,0,0,448,248V120a8,8,0,0,0-2.343-5.657l-96-96A8,8,0,0,0,344,16H104A40.045,40.045,0,0,0,64,56V248A8,8,0,0,0,67.984,254.919ZM352,43.313,420.686,112H376a24.027,24.027,0,0,1-24-24ZM80,56a24.027,24.027,0,0,1,24-24H336V88a40.045,40.045,0,0,0,40,40h56V234.214l-44.031-25.16a8,8,0,0,0-7.547-.209L320,239.056l-60.422-30.211a8,8,0,0,0-7.156,0L192,239.056l-60.422-30.211a8,8,0,0,0-7.547.209L80,234.214Zm24,440H408a40.045,40.045,0,0,0,40-40V312a8,8,0,0,0-4.031-6.946l-56-32a8,8,0,0,0-7.547-.209L320,303.056l-60.422-30.211a8,8,0,0,0-7.156,0L192,303.056l-60.422-30.211a8,8,0,0,0-7.547.209l-56,32A8,8,0,0,0,64,312V456A40.045,40.045,0,0,0,104,496ZM80,316.643l48.252-27.573,60.17,30.085a8,8,0,0,0,7.156,0L256,288.944l60.422,30.211a8,8,0,0,0,7.156,0l60.17-30.085L432,316.643V456a24.027,24.027,0,0,1-24,24H104a24.027,24.027,0,0,1-24-24ZM200,160H392a8,8,0,0,1,0,16H200a8,8,0,0,1,0-16Zm-32,16H120a8,8,0,0,1,0-16h48a8,8,0,0,1,0,16Zm80,224h80a8,8,0,0,1,0,16H248a8,8,0,0,1,0-16Zm-136,8a8,8,0,0,1,8-8h96a8,8,0,0,1,0,16H120A8,8,0,0,1,112,408Zm0-48a8,8,0,0,1,8-8H296a8,8,0,0,1,0,16H120A8,8,0,0,1,112,360Zm0-240a8,8,0,0,1,8-8h96a8,8,0,0,1,0,16H120A8,8,0,0,1,112,120ZM320,360a8,8,0,0,1,8-8h64a8,8,0,0,1,0,16H328A8,8,0,0,1,320,360Zm80,48a8,8,0,0,1-8,8H360a8,8,0,0,1,0-16h32A8,8,0,0,1,400,408Z" style="fill:url(#JShine)"/></svg>
