<svg id="Gradient" height="512" viewBox="0 0 512 512" width="512" xmlns="http://www.w3.org/2000/svg" xmlns:xlink="http://www.w3.org/1999/xlink"><linearGradient id="JShine" gradientUnits="userSpaceOnUse" x1="256" x2="256" y1="496" y2="16"><stop offset="0" stop-color="#12c2e9"/><stop offset=".056" stop-color="#19bfe9"/><stop offset=".137" stop-color="#2db6ea"/><stop offset=".235" stop-color="#4da7ea"/><stop offset=".344" stop-color="#7993eb"/><stop offset=".462" stop-color="#b279ed"/><stop offset=".497" stop-color="#c471ed"/><stop offset="1" stop-color="#f64f59"/></linearGradient><path d="m405.657 114.343-96-96a8 8 0 0 0 -5.657-2.343h-240a40.045 40.045 0 0 0 -40 40v400a40.045 40.045 0 0 0 40 40h304a40 40 0 0 0 33.271-17.771l26.489 16.555a8 8 0 0 0 12.2-7.58l-7.585-75.847 52.832-45.283a8 8 0 0 0 -3.638-13.919l-73.569-14.713v-217.442a8 8 0 0 0 -2.343-5.657zm-93.657-71.03 68.687 68.687h-44.687a24.027 24.027 0 0 1 -24-24zm-15.24 436.687h-232.76a24.028 24.028 0 0 1 -24-24v-400a24.028 24.028 0 0 1 24-24h232v56a40.045 40.045 0 0 0 40 40h56v183.372l-16.907-32.405a8 8 0 0 0 -14.186 0l-30.229 57.939-76.247 15.249a8 8 0 0 0 -3.638 13.919l52.832 45.283zm71.24 0h-36.1l36.1-22.566 19.679 12.3a23.99 23.99 0 0 1 -19.679 10.266zm94.315-115.379-43.522 37.305a8 8 0 0 0 -2.753 6.87l6.378 63.781-50.178-31.361a8 8 0 0 0 -8.48 0l-50.178 31.361 6.378-63.777a8 8 0 0 0 -2.753-6.87l-43.522-37.305 63.884-12.776a8 8 0 0 0 5.524-4.145l24.907-47.742 24.907 47.738a8 8 0 0 0 5.524 4.145zm-302.315-204.621h192a8 8 0 0 1 0 16h-192a8 8 0 0 1 0-16zm-88 56a8 8 0 0 1 8-8h160a8 8 0 0 1 0 16h-160a8 8 0 0 1 -8-8zm256 48a8 8 0 0 1 -8 8h-112a8 8 0 0 1 0-16h112a8 8 0 0 1 8 8zm-256 48a8 8 0 0 1 8-8h224a8 8 0 0 1 0 16h-224a8 8 0 0 1 -8-8zm0-144a8 8 0 0 1 8-8h48a8 8 0 0 1 0 16h-48a8 8 0 0 1 -8-8zm288 48a8 8 0 0 1 -8 8h-80a8 8 0 0 1 0-16h80a8 8 0 0 1 8 8zm-288 48a8 8 0 0 1 8-8h96a8 8 0 0 1 0 16h-96a8 8 0 0 1 -8-8zm176 144a8 8 0 0 1 -8 8h-64a8 8 0 0 1 0-16h64a8 8 0 0 1 8 8zm-96 0a8 8 0 0 1 -8 8h-64a8 8 0 0 1 0-16h64a8 8 0 0 1 8 8zm-80-48a8 8 0 0 1 8-8h48a8 8 0 0 1 0 16h-48a8 8 0 0 1 -8-8zm0-240a8 8 0 0 1 8-8h96a8 8 0 0 1 0 16h-96a8 8 0 0 1 -8-8zm136 248h-48a8 8 0 0 1 0-16h48a8 8 0 0 1 0 16z" fill="url(#JShine)"/></svg>