<svg id="Gradient" height="512" viewBox="0 0 512 512" width="512" xmlns="http://www.w3.org/2000/svg" xmlns:xlink="http://www.w3.org/1999/xlink"><linearGradient id="JShine" gradientUnits="userSpaceOnUse" x1="256" x2="256" y1="496" y2="16"><stop offset="0" stop-color="#12c2e9"/><stop offset=".056" stop-color="#19bfe9"/><stop offset=".137" stop-color="#2db6ea"/><stop offset=".235" stop-color="#4da7ea"/><stop offset=".344" stop-color="#7993eb"/><stop offset=".462" stop-color="#b279ed"/><stop offset=".497" stop-color="#c471ed"/><stop offset="1" stop-color="#f64f59"/></linearGradient><path d="m64 432h211.851l70.881 62.021a8 8 0 0 0 10.536 0l128-112a8 8 0 0 0 -5.268-14.021h-56v-104a8 8 0 0 0 -8-8h-56v-152a8 8 0 0 0 -2.343-5.657l-80-80a8 8 0 0 0 -5.657-2.343h-208a40.045 40.045 0 0 0 -40 40v336a40.045 40.045 0 0 0 40 40zm344-160v104a8 8 0 0 0 8 8h42.708l-106.708 93.37-106.708-93.37h42.708a8 8 0 0 0 8-8v-104zm-128-228.687 52.687 52.687h-28.687a24.027 24.027 0 0 1 -24-24zm-240 12.687a24.027 24.027 0 0 1 24-24h200v40a40.045 40.045 0 0 0 40 40h40v144h-56a8 8 0 0 0 -8 8v104h-56a8 8 0 0 0 -5.268 14.021l38.834 33.979h-193.566a24.027 24.027 0 0 1 -24-24zm120 88h144a8 8 0 0 1 0 16h-144a8 8 0 0 1 0-16zm-88 56a8 8 0 0 1 8-8h128a8 8 0 0 1 0 16h-128a8 8 0 0 1 -8-8zm0 96a8 8 0 0 1 8-8h144a8 8 0 0 1 0 16h-144a8 8 0 0 1 -8-8zm0-144a8 8 0 0 1 8-8h48a8 8 0 0 1 0 16h-48a8 8 0 0 1 -8-8zm240 48a8 8 0 0 1 -8 8h-64a8 8 0 0 1 0-16h64a8 8 0 0 1 8 8zm-240 48a8 8 0 0 1 8-8h96a8 8 0 0 1 0 16h-96a8 8 0 0 1 -8-8zm0-144a8 8 0 0 1 8-8h96a8 8 0 0 1 0 16h-96a8 8 0 0 1 -8-8zm176 144a8 8 0 0 1 -8 8h-32a8 8 0 0 1 0-16h32a8 8 0 0 1 8 8zm-176 96a8 8 0 0 1 8-8h48a8 8 0 0 1 0 16h-48a8 8 0 0 1 -8-8zm128 0a8 8 0 0 1 -8 8h-32a8 8 0 0 1 0-16h32a8 8 0 0 1 8 8z" fill="url(#JShine)"/></svg>