<svg id="Gradient" height="512" viewBox="0 0 512 512" width="512" xmlns="http://www.w3.org/2000/svg" xmlns:xlink="http://www.w3.org/1999/xlink"><linearGradient id="JShine" gradientUnits="userSpaceOnUse" x1="256" x2="256" y1="496" y2="16"><stop offset="0" stop-color="#12c2e9"/><stop offset=".056" stop-color="#19bfe9"/><stop offset=".137" stop-color="#2db6ea"/><stop offset=".235" stop-color="#4da7ea"/><stop offset=".344" stop-color="#7993eb"/><stop offset=".462" stop-color="#b279ed"/><stop offset=".497" stop-color="#c471ed"/><stop offset="1" stop-color="#f64f59"/></linearGradient><path d="m344 16h-240a40.045 40.045 0 0 0 -40 40v400a40.045 40.045 0 0 0 40 40h304a40.045 40.045 0 0 0 40-40v-336a8 8 0 0 0 -2.343-5.657l-96-96a8 8 0 0 0 -5.657-2.343zm88 440a24.028 24.028 0 0 1 -24 24h-304a24.028 24.028 0 0 1 -24-24v-400a24.028 24.028 0 0 1 24-24h232v56a40.045 40.045 0 0 0 40 40h56zm-80-412.687 68.687 68.687h-44.687a24.027 24.027 0 0 1 -24-24zm-120 228.687a8 8 0 1 1 -8-8 8 8 0 0 1 8 8zm32 0a8 8 0 1 1 -8-8 8 8 0 0 1 8 8zm24 8a8 8 0 1 1 8-8 8 8 0 0 1 -8 8zm-24-128v32a8 8 0 0 1 -16 0v-32a8 8 0 0 1 16 0zm0 208v32a8 8 0 0 1 -16 0v-32a8 8 0 0 1 16 0zm28.56-168.5 16-27.713a8 8 0 1 1 13.856 8l-16 27.713a8 8 0 1 1 -13.856-8zm-73.12 161-16 27.713a8 8 0 1 1 -13.856-8l16-27.713a8 8 0 0 1 13.856 8zm103.087 19.65a8 8 0 1 1 -13.857 8l-16-27.713a8 8 0 0 1 13.857-8zm-154.527-92.15h-32a8 8 0 0 1 0-16h32a8 8 0 0 1 0 16zm208-16a8 8 0 0 1 0 16h-32a8 8 0 0 1 0-16zm-190.531 45.773a8 8 0 0 1 -2.928 10.928l-27.713 16a8 8 0 1 1 -8-13.856l27.713-16a8 8 0 0 1 10.928 2.928zm141.062-75.546a8 8 0 0 1 2.928-10.928l27.713-16a8 8 0 1 1 8 13.856l-27.713 16a7.994 7.994 0 0 1 -10.928-2.928zm42.6 97.613a8 8 0 0 1 -10.928 2.929l-27.713-16a8 8 0 0 1 8-13.857l27.713 16a8 8 0 0 1 2.925 10.928z" fill="url(#JShine)"/></svg>