<?xml version="1.0"?>
<svg xmlns="http://www.w3.org/2000/svg" xmlns:xlink="http://www.w3.org/1999/xlink" id="Gradient" viewBox="0 0 512 512" width="512" height="512"><defs><linearGradient id="JShine" x1="256" y1="496" x2="256" y2="16" gradientUnits="userSpaceOnUse"><stop offset="0" stop-color="#12c2e9"/><stop offset="0.056" stop-color="#19bfe9"/><stop offset="0.137" stop-color="#2db6ea"/><stop offset="0.235" stop-color="#4da7ea"/><stop offset="0.344" stop-color="#7993eb"/><stop offset="0.462" stop-color="#b279ed"/><stop offset="0.497" stop-color="#c471ed"/><stop offset="1" stop-color="#f64f59"/></linearGradient></defs><path d="M184,144H120a8,8,0,0,1,0-16h64a8,8,0,0,1,0,16Zm-48,32H72a8,8,0,0,0,0,16h64a8,8,0,0,0,0-16ZM72,144H88a8,8,0,0,0,0-16H72a8,8,0,0,0,0,16Zm120,40a8,8,0,0,0-8-8H168a8,8,0,0,0,0,16h16A8,8,0,0,0,192,184Zm-88,40H72a8,8,0,0,0,0,16h32a8,8,0,0,0,0-16ZM72,96h48a8,8,0,0,0,0-16H72a8,8,0,0,0,0,16ZM493.657,82.343A8,8,0,0,1,496,88V264a40.045,40.045,0,0,1-40,40H368V456a40.045,40.045,0,0,1-40,40H184a40.045,40.045,0,0,1-40-40V304H56a40.045,40.045,0,0,1-40-40V56A40.045,40.045,0,0,1,56,16H168a8,8,0,0,1,5.657,2.343l64,64A8,8,0,0,1,240,88V208h32V56a40.045,40.045,0,0,1,40-40H424a8,8,0,0,1,5.657,2.343ZM432,56a24.028,24.028,0,0,0,24,24h12.687L432,43.313ZM176,56a24.028,24.028,0,0,0,24,24h12.687L176,43.313Zm8,152h40V96H200a40.045,40.045,0,0,1-40-40V32H56A24.028,24.028,0,0,0,32,56V264a24.028,24.028,0,0,0,24,24h88V248A40.045,40.045,0,0,1,184,208Zm168,80H328a40.045,40.045,0,0,1-40-40V224H184a24.028,24.028,0,0,0-24,24V456a24.028,24.028,0,0,0,24,24H328a24.028,24.028,0,0,0,24-24Zm-24-16h12.687L304,235.313V248A24.028,24.028,0,0,0,328,272ZM480,96H456a40.045,40.045,0,0,1-40-40V32H312a24.028,24.028,0,0,0-24,24V208h8a8,8,0,0,1,5.657,2.343l64,64A8,8,0,0,1,368,280v8h88a24.028,24.028,0,0,0,24-24Zm-40,32H376a8,8,0,0,0,0,16h64a8,8,0,0,0,0-16Zm-40,56a8,8,0,0,0-8-8H328a8,8,0,0,0,0,16h64A8,8,0,0,0,400,184Zm40,40H376a8,8,0,0,0,0,16h64a8,8,0,0,0,0-16ZM328,144h16a8,8,0,0,0,0-16H328a8,8,0,0,0,0,16Zm112,32H424a8,8,0,0,0,0,16h16a8,8,0,0,0,0-16ZM328,96h48a8,8,0,0,0,0-16H328a8,8,0,0,0,0,16ZM224,344a8,8,0,1,0,8,8A8,8,0,0,0,224,344Zm32,0a8,8,0,1,0,8,8A8,8,0,0,0,256,344Zm32,0a8,8,0,1,0,8,8A8,8,0,0,0,288,344ZM56,336a8,8,0,0,0-8,8v48a8,8,0,0,0,8,8h48a8,8,0,0,0,0-16H64V344A8,8,0,0,0,56,336Zm400,64a8,8,0,0,0,8-8V344a8,8,0,0,0-16,0v40H408a8,8,0,0,0,0,16Z" style="fill:url(#JShine)"/></svg>
