<?xml version="1.0"?>
<svg xmlns="http://www.w3.org/2000/svg" xmlns:xlink="http://www.w3.org/1999/xlink" id="Gradient" viewBox="0 0 512 512" width="512" height="512"><defs><linearGradient id="JShine" x1="256" y1="496" x2="256" y2="16" gradientUnits="userSpaceOnUse"><stop offset="0" stop-color="#12c2e9"/><stop offset="0.056" stop-color="#19bfe9"/><stop offset="0.137" stop-color="#2db6ea"/><stop offset="0.235" stop-color="#4da7ea"/><stop offset="0.344" stop-color="#7993eb"/><stop offset="0.462" stop-color="#b279ed"/><stop offset="0.497" stop-color="#c471ed"/><stop offset="1" stop-color="#f64f59"/></linearGradient></defs><path d="M456,64H304V56a40.045,40.045,0,0,0-40-40H184a40.045,40.045,0,0,0-40,40v72H56a40.045,40.045,0,0,0-40,40V456a40.045,40.045,0,0,0,40,40H264a40.045,40.045,0,0,0,40-40V400H456a40.045,40.045,0,0,0,40-40V104A40.045,40.045,0,0,0,456,64ZM288,456a24.028,24.028,0,0,1-24,24H56a24.028,24.028,0,0,1-24-24V168a24.028,24.028,0,0,1,24-24H208v40a40.045,40.045,0,0,0,40,40h40v52.084c-20.418,15.477-32,34.137-32,51.916a8,8,0,0,0,11.149,7.354c.21-.089,8.335-3.533,20.851-7.75ZM224,184V155.314L276.686,208H248A24.027,24.027,0,0,1,224,184Zm50.992,131.154c4.561-10.2,14.15-20.723,27.5-29.791C322.193,271.986,346.681,264,368,264a8,8,0,0,0,8-8v-6.606L411.707,280,376,310.606V304a8,8,0,0,0-8-8C333.211,296,295.082,307.879,274.992,315.154ZM480,360a24.027,24.027,0,0,1-24,24H304V322.6c16.587-4.79,36.737-9.334,56-10.376V328a8,8,0,0,0,13.206,6.074l56-48a8,8,0,0,0,0-12.148l-56-48A8,8,0,0,0,360,232v16.311c-18.538,1.414-38.424,7.612-56,17.38V216a8,8,0,0,0-2.343-5.657l-80-80A8,8,0,0,0,216,128H160V56a24.027,24.027,0,0,1,24-24h80a24.027,24.027,0,0,1,24,24v64a8,8,0,0,0,8,8H456a24.027,24.027,0,0,1,24,24Zm0-239.978A39.788,39.788,0,0,0,456,112H304V80H456a24.028,24.028,0,0,1,24,24ZM128,264a8,8,0,0,1,8-8H248a8,8,0,0,1,0,16H136A8,8,0,0,1,128,264ZM64,312a8,8,0,0,1,8-8H184a8,8,0,0,1,0,16H72A8,8,0,0,1,64,312Zm192,96a8,8,0,0,1-8,8H216a8,8,0,0,1,0-16h32A8,8,0,0,1,256,408ZM64,264a8,8,0,0,1,8-8h32a8,8,0,0,1,0,16H72A8,8,0,0,1,64,264Zm0,96a8,8,0,0,1,8-8h80a8,8,0,0,1,0,16H72A8,8,0,0,1,64,360Zm0-144a8,8,0,0,1,8-8h48a8,8,0,0,1,0,16H72A8,8,0,0,1,64,216ZM216,320a8,8,0,1,1,8-8A8,8,0,0,1,216,320Zm-32,32h48a8,8,0,0,1,0,16H184a8,8,0,0,1,0-16Zm8,56a8,8,0,0,1-8,8H72a8,8,0,0,1,0-16H184A8,8,0,0,1,192,408Z" style="fill:url(#JShine)"/></svg>
