<svg id="Gradient" height="512" viewBox="0 0 512 512" width="512" xmlns="http://www.w3.org/2000/svg" xmlns:xlink="http://www.w3.org/1999/xlink"><linearGradient id="JShine" gradientUnits="userSpaceOnUse" x1="256" x2="256" y1="496" y2="16"><stop offset="0" stop-color="#12c2e9"/><stop offset=".056" stop-color="#19bfe9"/><stop offset=".137" stop-color="#2db6ea"/><stop offset=".235" stop-color="#4da7ea"/><stop offset=".344" stop-color="#7993eb"/><stop offset=".462" stop-color="#b279ed"/><stop offset=".497" stop-color="#c471ed"/><stop offset="1" stop-color="#f64f59"/></linearGradient><path d="m397.657 18.343a8 8 0 0 0 -5.657-2.343h-336a40.045 40.045 0 0 0 -40 40v400a40.045 40.045 0 0 0 40 40h400a40.045 40.045 0 0 0 40-40v-336a8 8 0 0 0 -2.343-5.657zm2.343 24.97 68.687 68.687h-44.687a24.028 24.028 0 0 1 -24-24zm-327.978 436.687h-16.022a24.028 24.028 0 0 1 -24-24v-400a24.028 24.028 0 0 1 24-24h16.022a39.788 39.788 0 0 0 -8.022 24v400a39.788 39.788 0 0 0 8.022 24zm48 0h-16.022a24.028 24.028 0 0 1 -24-24v-400a24.028 24.028 0 0 1 24-24h16.022a39.788 39.788 0 0 0 -8.022 24v400a39.788 39.788 0 0 0 8.022 24zm359.978-24a24.028 24.028 0 0 1 -24 24h-304a24.028 24.028 0 0 1 -24-24v-400a24.028 24.028 0 0 1 24-24h232v56a40.045 40.045 0 0 0 40 40h56zm-232-296h192a8 8 0 0 1 0 16h-192a8 8 0 0 1 0-16zm-88 56a8 8 0 0 1 8-8h160a8 8 0 0 1 0 16h-160a8 8 0 0 1 -8-8zm288 48a8 8 0 0 1 -8 8h-144a8 8 0 0 1 0-16h144a8 8 0 0 1 8 8zm-288 48a8 8 0 0 1 8-8h192a8 8 0 0 1 0 16h-192a8 8 0 0 1 -8-8zm0-144a8 8 0 0 1 8-8h48a8 8 0 0 1 0 16h-48a8 8 0 0 1 -8-8zm288 48a8 8 0 0 1 -8 8h-80a8 8 0 0 1 0-16h80a8 8 0 0 1 8 8zm-288 48a8 8 0 0 1 8-8h96a8 8 0 0 1 0 16h-96a8 8 0 0 1 -8-8zm288 48a8 8 0 0 1 -8 8h-48a8 8 0 0 1 0-16h48a8 8 0 0 1 8 8zm-64 96a8 8 0 0 1 -8 8h-80a8 8 0 0 1 0-16h80a8 8 0 0 1 8 8zm-112 0a8 8 0 0 1 -8 8h-96a8 8 0 0 1 0-16h96a8 8 0 0 1 8 8zm-112-48a8 8 0 0 1 8-8h64a8 8 0 0 1 0 16h-64a8 8 0 0 1 -8-8zm0-240a8 8 0 0 1 8-8h96a8 8 0 0 1 0 16h-96a8 8 0 0 1 -8-8zm288 240a8 8 0 0 1 -8 8h-64a8 8 0 0 1 0-16h64a8 8 0 0 1 8 8zm0 48a8 8 0 0 1 -8 8h-32a8 8 0 0 1 0-16h32a8 8 0 0 1 8 8zm-104-56a8 8 0 0 1 0 16h-80a8 8 0 0 1 0-16z" fill="url(#JShine)"/></svg>