<?xml version="1.0"?>
<svg xmlns="http://www.w3.org/2000/svg" xmlns:xlink="http://www.w3.org/1999/xlink" id="Gradient" viewBox="0 0 512 512" width="512" height="512"><defs><linearGradient id="JShine" x1="256" y1="496" x2="256" y2="16" gradientUnits="userSpaceOnUse"><stop offset="0" stop-color="#12c2e9"/><stop offset="0.056" stop-color="#19bfe9"/><stop offset="0.137" stop-color="#2db6ea"/><stop offset="0.235" stop-color="#4da7ea"/><stop offset="0.344" stop-color="#7993eb"/><stop offset="0.462" stop-color="#b279ed"/><stop offset="0.497" stop-color="#c471ed"/><stop offset="1" stop-color="#f64f59"/></linearGradient></defs><path d="M160,160H304a8,8,0,0,1,0,16H160a8,8,0,0,1,0-16ZM80,224H240a8,8,0,0,0,0-16H80a8,8,0,0,0,0,16Zm0,96H192a8,8,0,0,0,0-16H80a8,8,0,0,0,0,16Zm0-144h48a8,8,0,0,0,0-16H80a8,8,0,0,0,0,16Zm224,32H272a8,8,0,0,0,0,16h32a8,8,0,0,0,0-16ZM80,272H200a8,8,0,0,0,0-16H80a8,8,0,0,0,0,16ZM304,400H208a8,8,0,0,0,0,16h96a8,8,0,0,0,0-16Zm-128,0H80a8,8,0,0,0,0,16h96a8,8,0,0,0,0-16ZM80,368h64a8,8,0,0,0,0-16H80a8,8,0,0,0,0,16Zm0-240h96a8,8,0,0,0,0-16H80a8,8,0,0,0,0,16ZM192,352H176a8,8,0,0,0,0,16h16a8,8,0,0,0,0-16Zm296-40a8,8,0,0,1-2.732,6.021L408,385.63V456a40.045,40.045,0,0,1-40,40H64a40.045,40.045,0,0,1-40-40V56A40.045,40.045,0,0,1,64,16H304a8,8,0,0,1,5.657,2.343l96,96A8,8,0,0,1,408,120V238.37l77.268,67.609A8,8,0,0,1,488,312ZM312,88a24.027,24.027,0,0,0,24,24h44.687L312,43.313Zm80,311.63-34.732,30.391A8,8,0,0,1,344,424V368H240a8,8,0,0,1-8-8V264a8,8,0,0,1,8-8H344V200a8,8,0,0,1,13.268-6.021L392,224.37V128H336a40.045,40.045,0,0,1-40-40V32H64A24.028,24.028,0,0,0,40,56V456a24.028,24.028,0,0,0,24,24H368a24.028,24.028,0,0,0,24-24ZM467.851,312,360,217.63V264a8,8,0,0,1-8,8H248v80H352a8,8,0,0,1,8,8v46.37Z" style="fill:url(#JShine)"/></svg>
