<?xml version="1.0"?>
<svg xmlns="http://www.w3.org/2000/svg" xmlns:xlink="http://www.w3.org/1999/xlink" id="Gradient" viewBox="0 0 512 512" width="512" height="512"><defs><linearGradient id="JShine" x1="256" y1="496" x2="256" y2="16" gradientUnits="userSpaceOnUse"><stop offset="0" stop-color="#12c2e9"/><stop offset="0.056" stop-color="#19bfe9"/><stop offset="0.137" stop-color="#2db6ea"/><stop offset="0.235" stop-color="#4da7ea"/><stop offset="0.344" stop-color="#7993eb"/><stop offset="0.462" stop-color="#b279ed"/><stop offset="0.497" stop-color="#c471ed"/><stop offset="1" stop-color="#f64f59"/></linearGradient></defs><path d="M256,160H432a8,8,0,0,1,0,16H256a8,8,0,0,1,0-16Zm72,56a8,8,0,0,0-8-8H208a8,8,0,0,0,0,16H320A8,8,0,0,0,328,216Zm104,40H320a8,8,0,0,0,0,16H432a8,8,0,0,0,0-16Zm-72,56a8,8,0,0,0-8-8H320a8,8,0,0,0,0,16h32A8,8,0,0,0,360,312ZM224,176a8,8,0,0,0,0-16H160a8,8,0,0,0,0,16Zm208,32H352a8,8,0,0,0,0,16h80a8,8,0,0,0,0-16Zm0,96H384a8,8,0,0,0,0,16h48a8,8,0,0,0,0-16Zm-64,96H288a8,8,0,0,0,0,16h80a8,8,0,0,0,0-16Zm-112,0H208a8,8,0,0,0,0,16h48a8,8,0,0,0,0-16ZM160,128h96a8,8,0,0,0,0-16H160a8,8,0,0,0,0,16ZM320,352a8,8,0,0,0,0,16h16a8,8,0,0,0,0-16Zm112,0H368a8,8,0,0,0,0,16h64a8,8,0,0,0,0-16Zm0,48H400a8,8,0,0,0,0,16h32a8,8,0,0,0,0-16ZM26.732,305.979,104,238.37V56a40.045,40.045,0,0,1,40-40H384a8,8,0,0,1,5.657,2.343l96,96A8,8,0,0,1,488,120V456a40.045,40.045,0,0,1-40,40H144a40.045,40.045,0,0,1-40-40V385.63L26.732,318.021a8,8,0,0,1,0-12.042ZM392,88a24.027,24.027,0,0,0,24,24h44.687L392,43.313ZM120,224.37l34.732-30.391A8,8,0,0,1,168,200v56H272a8,8,0,0,1,8,8v96a8,8,0,0,1-8,8H168v56a8,8,0,0,1-13.268,6.021L120,399.63V456a24.028,24.028,0,0,0,24,24H448a24.028,24.028,0,0,0,24-24V128H416a40.045,40.045,0,0,1-40-40V32H144a24.028,24.028,0,0,0-24,24ZM44.149,312,152,406.37V360a8,8,0,0,1,8-8H264V272H160a8,8,0,0,1-8-8V217.63Z" style="fill:url(#JShine)"/></svg>
