<svg id="Gradient" height="512" viewBox="0 0 512 512" width="512" xmlns="http://www.w3.org/2000/svg" xmlns:xlink="http://www.w3.org/1999/xlink"><linearGradient id="JShine" gradientUnits="userSpaceOnUse" x1="256" x2="256" y1="496" y2="16"><stop offset="0" stop-color="#12c2e9"/><stop offset=".056" stop-color="#19bfe9"/><stop offset=".137" stop-color="#2db6ea"/><stop offset=".235" stop-color="#4da7ea"/><stop offset=".344" stop-color="#7993eb"/><stop offset=".462" stop-color="#b279ed"/><stop offset=".497" stop-color="#c471ed"/><stop offset="1" stop-color="#f64f59"/></linearGradient><path d="m357.657 98.343-80-80a8 8 0 0 0 -5.657-2.343h-208a40.045 40.045 0 0 0 -40 40v336a40.045 40.045 0 0 0 40 40h216v56a8 8 0 0 0 8 8h128a8 8 0 0 0 8-8v-104h56a8 8 0 0 0 5.268-14.021l-125.268-109.609v-156.37a8 8 0 0 0 -2.343-5.657zm-77.657-55.03 52.687 52.687h-28.687a24.027 24.027 0 0 1 -24-24zm0 372.687h-216a24.027 24.027 0 0 1 -24-24v-336a24.027 24.027 0 0 1 24-24h200v40a40.045 40.045 0 0 0 40 40h40v148.37l-125.268 109.609a8 8 0 0 0 5.268 14.021h56zm178.708-48h-42.708a8 8 0 0 0 -8 8v104h-112v-104a8 8 0 0 0 -8-8h-42.708l106.708-93.37zm-298.708-224h144a8 8 0 0 1 0 16h-144a8 8 0 0 1 0-16zm-88 56a8 8 0 0 1 8-8h128a8 8 0 0 1 0 16h-128a8 8 0 0 1 -8-8zm0 96a8 8 0 0 1 8-8h160a8 8 0 0 1 0 16h-160a8 8 0 0 1 -8-8zm0-144a8 8 0 0 1 8-8h48a8 8 0 0 1 0 16h-48a8 8 0 0 1 -8-8zm240 48a8 8 0 0 1 -8 8h-64a8 8 0 0 1 0-16h64a8 8 0 0 1 8 8zm-240 48a8 8 0 0 1 8-8h96a8 8 0 0 1 0 16h-96a8 8 0 0 1 -8-8zm0-144a8 8 0 0 1 8-8h96a8 8 0 0 1 0 16h-96a8 8 0 0 1 -8-8zm240 144a8 8 0 0 1 -8 8h-96a8 8 0 0 1 0-16h96a8 8 0 0 1 8 8zm-176 96a8 8 0 0 1 -8 8h-48a8 8 0 0 1 0-16h48a8 8 0 0 1 8 8zm64 0a8 8 0 0 1 -8 8h-32a8 8 0 0 1 0-16h32a8 8 0 0 1 8 8z" fill="url(#JShine)"/></svg>