<?xml version="1.0"?>
<svg xmlns="http://www.w3.org/2000/svg" xmlns:xlink="http://www.w3.org/1999/xlink" id="Gradient" viewBox="0 0 512 512" width="512" height="512"><defs><linearGradient id="JShine" x1="256" y1="496" x2="256" y2="16" gradientUnits="userSpaceOnUse"><stop offset="0" stop-color="#12c2e9"/><stop offset="0.056" stop-color="#19bfe9"/><stop offset="0.137" stop-color="#2db6ea"/><stop offset="0.235" stop-color="#4da7ea"/><stop offset="0.344" stop-color="#7993eb"/><stop offset="0.462" stop-color="#b279ed"/><stop offset="0.497" stop-color="#c471ed"/><stop offset="1" stop-color="#f64f59"/></linearGradient></defs><path d="M397.657,18.343A8,8,0,0,0,392,16H152a40.045,40.045,0,0,0-40,40v97.37L74.732,185.979a8,8,0,0,0,0,12.042L104,223.63V337.907A63.9,63.9,0,0,1,80,288a8,8,0,0,0-8-8H24a8,8,0,0,0-8,8,128.23,128.23,0,0,0,96,123.95V456a40.045,40.045,0,0,0,40,40H456a40.045,40.045,0,0,0,40-40V120a8,8,0,0,0-2.343-5.657ZM400,43.313,468.687,112H424a24.027,24.027,0,0,1-24-24ZM32.283,296H64.4A80,80,0,1,0,144,208a8,8,0,0,0-8,8v14.37L92.149,192,136,153.63V168a8,8,0,0,0,8,8A112,112,0,1,1,32.283,296ZM120,347.313V237.63l18.732,16.391A8,8,0,0,0,152,248V224.5a64,64,0,1,1-32,122.816ZM480,456a24.028,24.028,0,0,1-24,24H152a24.028,24.028,0,0,1-24-24V415A128.044,128.044,0,0,0,272,288c0-67.892-53.135-123.607-120-127.753V136a8,8,0,0,0-13.268-6.021L128,139.37V56a24.028,24.028,0,0,1,24-24H384V88a40.045,40.045,0,0,0,40,40h56ZM280,176H264a8,8,0,0,1,0-16h16a8,8,0,0,1,0,16Zm8,40a8,8,0,0,1,8-8h32a8,8,0,0,1,0,16H296A8,8,0,0,1,288,216Zm160,48a8,8,0,0,1-8,8H312a8,8,0,0,1,0-16H440A8,8,0,0,1,448,264ZM312,320a8,8,0,0,1,0-16h48a8,8,0,0,1,0,16ZM448,216a8,8,0,0,1-8,8H360a8,8,0,0,1,0-16h80A8,8,0,0,1,448,216Zm0,96a8,8,0,0,1-8,8H392a8,8,0,0,1,0-16h48A8,8,0,0,1,448,312Zm-64,96a8,8,0,0,1-8,8H312a8,8,0,0,1,0-16h64A8,8,0,0,1,384,408Zm-96,0a8,8,0,0,1-8,8H264a8,8,0,0,1,0-16h16A8,8,0,0,1,288,408ZM256,120a8,8,0,0,1-8,8H184a8,8,0,0,1,0-16h64A8,8,0,0,1,256,120Zm88,248H296a8,8,0,0,1,0-16h48a8,8,0,0,1,0,16Zm104-8a8,8,0,0,1-8,8H376a8,8,0,0,1,0-16h64A8,8,0,0,1,448,360Zm0,48a8,8,0,0,1-8,8H408a8,8,0,0,1,0-16h32A8,8,0,0,1,448,408ZM312,160H440a8,8,0,0,1,0,16H312a8,8,0,0,1,0-16Z" style="fill:url(#JShine)"/></svg>
