<svg id="Gradient" height="512" viewBox="0 0 512 512" width="512" xmlns="http://www.w3.org/2000/svg" xmlns:xlink="http://www.w3.org/1999/xlink"><linearGradient id="JShine" gradientUnits="userSpaceOnUse" x1="256" x2="256" y1="496" y2="16"><stop offset="0" stop-color="#12c2e9"/><stop offset=".056" stop-color="#19bfe9"/><stop offset=".137" stop-color="#2db6ea"/><stop offset=".235" stop-color="#4da7ea"/><stop offset=".344" stop-color="#7993eb"/><stop offset=".462" stop-color="#b279ed"/><stop offset=".497" stop-color="#c471ed"/><stop offset="1" stop-color="#f64f59"/></linearGradient><path d="m72 496h296a111.991 111.991 0 0 0 48-213.179v-162.821a8 8 0 0 0 -2.343-5.657l-96-96a8 8 0 0 0 -5.657-2.343h-240a40.045 40.045 0 0 0 -40 40v400a40.045 40.045 0 0 0 40 40zm392-112a96 96 0 1 1 -96-96 96.108 96.108 0 0 1 96 96zm-144-340.687 68.687 68.687h-44.687a24.027 24.027 0 0 1 -24-24zm-272 12.687a24.028 24.028 0 0 1 24-24h232v56a40.045 40.045 0 0 0 40 40h56v148.666a111.983 111.983 0 0 0 -89.631 203.334h-238.369a24.028 24.028 0 0 1 -24-24zm120 104h192a8 8 0 0 1 0 16h-192a8 8 0 0 1 0-16zm-88 56a8 8 0 0 1 8-8h160a8 8 0 0 1 0 16h-160a8 8 0 0 1 -8-8zm208 48a8 8 0 0 1 -8 8h-64a8 8 0 0 1 0-16h64a8 8 0 0 1 8 8zm-208 48a8 8 0 0 1 8-8h144a8 8 0 0 1 0 16h-144a8 8 0 0 1 -8-8zm0-144a8 8 0 0 1 8-8h48a8 8 0 0 1 0 16h-48a8 8 0 0 1 -8-8zm288 48a8 8 0 0 1 -8 8h-80a8 8 0 0 1 0-16h80a8 8 0 0 1 8 8zm-288 48a8 8 0 0 1 8-8h96a8 8 0 0 1 0 16h-96a8 8 0 0 1 -8-8zm144 144a8 8 0 0 1 -8 8h-32a8 8 0 0 1 0-16h32a8 8 0 0 1 8 8zm-144 0a8 8 0 0 1 8-8h64a8 8 0 0 1 0 16h-64a8 8 0 0 1 -8-8zm0-48a8 8 0 0 1 8-8h48a8 8 0 0 1 0 16h-48a8 8 0 0 1 -8-8zm0-240a8 8 0 0 1 8-8h96a8 8 0 0 1 0 16h-96a8 8 0 0 1 -8-8zm144 240a8 8 0 0 1 -8 8h-48a8 8 0 0 1 0-16h48a8 8 0 0 1 8 8zm215.048-14.656a8 8 0 0 0 -11.093 2.218l-4.92 7.38a64 64 0 0 0 -118.261-6.375 8 8 0 0 0 14.452 6.866 48 48 0 0 1 88.25 3.529l-8.428-5.618a8 8 0 0 0 -8.875 13.312l24 16a8 8 0 0 0 11.094-2.218l16-24a8 8 0 0 0 -2.219-11.094zm-11.615 63.43a8 8 0 0 0 -10.659 3.793 48 48 0 0 1 -88.25-3.529l8.428 5.618a8 8 0 0 0 8.875-13.312l-24-16a8 8 0 0 0 -11.094 2.218l-16 24a8 8 0 1 0 13.312 8.876l4.92-7.38a64 64 0 0 0 118.261 6.375 8 8 0 0 0 -3.793-10.659z" fill="url(#JShine)"/></svg>