<svg id="Gradient" height="512" viewBox="0 0 512 512" width="512" xmlns="http://www.w3.org/2000/svg" xmlns:xlink="http://www.w3.org/1999/xlink"><linearGradient id="JShine" gradientUnits="userSpaceOnUse" x1="256" x2="256" y1="496" y2="16"><stop offset="0" stop-color="#12c2e9"/><stop offset=".056" stop-color="#19bfe9"/><stop offset=".137" stop-color="#2db6ea"/><stop offset=".235" stop-color="#4da7ea"/><stop offset=".344" stop-color="#7993eb"/><stop offset=".462" stop-color="#b279ed"/><stop offset=".497" stop-color="#c471ed"/><stop offset="1" stop-color="#f64f59"/></linearGradient><path d="m173.657 18.343a8 8 0 0 0 -5.657-2.343h-112a40.045 40.045 0 0 0 -40 40v192a40.045 40.045 0 0 0 40 40h144a40.045 40.045 0 0 0 40-40v-160a8 8 0 0 0 -2.343-5.657zm2.343 24.97 36.687 36.687h-12.687a24.028 24.028 0 0 1 -24-24zm48 204.687a24.028 24.028 0 0 1 -24 24h-144a24.028 24.028 0 0 1 -24-24v-192a24.028 24.028 0 0 1 24-24h104v24a40.045 40.045 0 0 0 40 40h24zm-32-112a8 8 0 0 1 -8 8h-64a8 8 0 0 1 0-16h64a8 8 0 0 1 8 8zm-128 48a8 8 0 0 1 8-8h64a8 8 0 0 1 0 16h-64a8 8 0 0 1 -8-8zm128 48a8 8 0 0 1 -8 8h-48a8 8 0 0 1 0-16h48a8 8 0 0 1 8 8zm-128-96a8 8 0 0 1 8-8h16a8 8 0 0 1 0 16h-16a8 8 0 0 1 -8-8zm128 48a8 8 0 0 1 -8 8h-16a8 8 0 0 1 0-16h16a8 8 0 0 1 8 8zm-80 48a8 8 0 0 1 -8 8h-32a8 8 0 0 1 0-16h32a8 8 0 0 1 8 8zm-48-144a8 8 0 0 1 8-8h32a8 8 0 0 1 0 16h-32a8 8 0 0 1 -8-8zm352.027 351.336 8-96a8 8 0 0 1 15.946 1.328l-8 96a8 8 0 0 1 -7.964 7.336q-.335 0-.673-.027a8 8 0 0 1 -7.309-8.637zm-40.027.664v-96a8 8 0 0 1 16 0v96a8 8 0 0 1 -16 0zm-47.973-95.336a8 8 0 0 1 15.946-1.328l8 96a8 8 0 0 1 -7.309 8.637q-.339.027-.673.027a8 8 0 0 1 -7.964-7.336zm159.973-88.664h-208a8 8 0 0 0 -8 8v32a8 8 0 0 0 8 8h.695l16.792 184.725a8 8 0 0 0 7.967 7.275h157.092a8 8 0 0 0 7.967-7.275l16.792-184.725h.695a8 8 0 0 0 8-8v-32a8 8 0 0 0 -8-8zm-32.76 224h-142.48l-16-176h174.48zm24.76-192h-192v-16h192zm-2.343-98.343-32 32a8 8 0 0 1 -11.314 0l-32-32a8 8 0 0 1 11.314-11.314l18.343 18.343v-12.686a56.063 56.063 0 0 0 -56-56h-96a8 8 0 0 1 0-16h96a72.081 72.081 0 0 1 72 72v12.686l18.343-18.343a8 8 0 0 1 11.314 11.314z" fill="url(#JShine)"/></svg>