<svg id="Gradient" height="512" viewBox="0 0 512 512" width="512" xmlns="http://www.w3.org/2000/svg" xmlns:xlink="http://www.w3.org/1999/xlink"><linearGradient id="JShine" gradientUnits="userSpaceOnUse" x1="256" x2="256" y1="496" y2="16"><stop offset="0" stop-color="#12c2e9"/><stop offset=".056" stop-color="#19bfe9"/><stop offset=".137" stop-color="#2db6ea"/><stop offset=".235" stop-color="#4da7ea"/><stop offset=".344" stop-color="#7993eb"/><stop offset=".462" stop-color="#b279ed"/><stop offset=".497" stop-color="#c471ed"/><stop offset="1" stop-color="#f64f59"/></linearGradient><path d="m56 272h144a40.045 40.045 0 0 0 40-40v-144a40.045 40.045 0 0 0 -40-40h-72.8a40.067 40.067 0 0 0 -39.2-32h-32a40.045 40.045 0 0 0 -40 40v176a40.045 40.045 0 0 0 40 40zm72-208h72a24.028 24.028 0 0 1 24 24v.022a39.788 39.788 0 0 0 -24-8.022h-72zm-96-8a24.027 24.027 0 0 1 24-24h32a24.027 24.027 0 0 1 24 24v32a8 8 0 0 0 8 8h80a24.027 24.027 0 0 1 24 24v112a24.027 24.027 0 0 1 -24 24h-144a24.027 24.027 0 0 1 -24-24zm32 272a8 8 0 1 1 -8-8 8 8 0 0 1 8 8zm0-32a8 8 0 1 1 -8-8 8 8 0 0 1 8 8zm0 64a8 8 0 1 1 -8-8 8 8 0 0 1 8 8zm0 32a8 8 0 1 1 -8-8 8 8 0 0 1 8 8zm64 0a8 8 0 1 1 -8-8 8 8 0 0 1 8 8zm-40-8a8 8 0 1 1 -8 8 8 8 0 0 1 8-8zm64 16a8 8 0 1 1 8-8 8 8 0 0 1 -8 8zm32 0a8 8 0 1 1 8-8 8 8 0 0 1 -8 8zm32 0a8 8 0 1 1 8-8 8 8 0 0 1 -8 8zm-152 24a8 8 0 1 1 -8-8 8 8 0 0 1 8 8zm0 32a8 8 0 1 1 -8-8 8 8 0 0 1 8 8zm0 32a8 8 0 1 1 -8-8 8 8 0 0 1 8 8zm192-96a8 8 0 1 1 -8-8 8 8 0 0 1 8 8zm173.657-165.657a8 8 0 0 0 -5.657-2.343h-112a40.045 40.045 0 0 0 -40 40v192a40.045 40.045 0 0 0 40 40h144a40.045 40.045 0 0 0 40-40v-160a8 8 0 0 0 -2.343-5.657zm2.343 24.97 36.687 36.687h-12.687a24.028 24.028 0 0 1 -24-24zm48 204.687a24.028 24.028 0 0 1 -24 24h-144a24.028 24.028 0 0 1 -24-24v-192a24.028 24.028 0 0 1 24-24h104v24a40.045 40.045 0 0 0 40 40h24zm-32-112a8 8 0 0 1 -8 8h-64a8 8 0 0 1 0-16h64a8 8 0 0 1 8 8zm-128 48a8 8 0 0 1 8-8h64a8 8 0 0 1 0 16h-64a8 8 0 0 1 -8-8zm128 48a8 8 0 0 1 -8 8h-48a8 8 0 0 1 0-16h48a8 8 0 0 1 8 8zm-128-96a8 8 0 0 1 8-8h16a8 8 0 0 1 0 16h-16a8 8 0 0 1 -8-8zm128 48a8 8 0 0 1 -8 8h-16a8 8 0 0 1 0-16h16a8 8 0 0 1 8 8zm-80 48a8 8 0 0 1 -8 8h-32a8 8 0 0 1 0-16h32a8 8 0 0 1 8 8zm-48-144a8 8 0 0 1 8-8h32a8 8 0 0 1 0 16h-32a8 8 0 0 1 -8-8z" fill="url(#JShine)"/></svg>