<svg id="Gradient" height="512" viewBox="0 0 512 512" width="512" xmlns="http://www.w3.org/2000/svg" xmlns:xlink="http://www.w3.org/1999/xlink"><linearGradient id="JShine" gradientUnits="userSpaceOnUse" x1="264" x2="264" y1="496" y2="16"><stop offset="0" stop-color="#12c2e9"/><stop offset=".056" stop-color="#19bfe9"/><stop offset=".137" stop-color="#2db6ea"/><stop offset=".235" stop-color="#4da7ea"/><stop offset=".344" stop-color="#7993eb"/><stop offset=".462" stop-color="#b279ed"/><stop offset=".497" stop-color="#c471ed"/><stop offset="1" stop-color="#f64f59"/></linearGradient><path d="m368 168a8 8 0 0 1 -8 8h-192a8 8 0 0 1 0-16h192a8 8 0 0 1 8 8zm-120 40h-160a8 8 0 0 0 0 16h160a8 8 0 0 0 0-16zm-16 48h-16a8 8 0 0 0 0 16h16a8 8 0 0 0 0-16zm0 48h-144a8 8 0 0 0 0 16h144a8 8 0 0 0 0-16zm-144-128h48a8 8 0 0 0 0-16h-48a8 8 0 0 0 0 16zm272 32h-80a8 8 0 0 0 0 16h80a8 8 0 0 0 0-16zm-272 64h96a8 8 0 0 0 0-16h-96a8 8 0 0 0 0 16zm144 128h-32a8 8 0 0 0 0 16h32a8 8 0 0 0 0-16zm-64 0h-80a8 8 0 0 0 0 16h80a8 8 0 0 0 0-16zm-80-32h48a8 8 0 0 0 0-16h-48a8 8 0 0 0 0 16zm0-240h96a8 8 0 0 0 0-16h-96a8 8 0 0 0 0 16zm144 224h-64a8 8 0 0 0 0 16h64a8 8 0 0 0 0-16zm262.092-32.1a8.006 8.006 0 0 1 1.908 5.191v162.909a8 8 0 0 1 -8 8h-416a40.045 40.045 0 0 1 -40-40v-400a40.045 40.045 0 0 1 40-40h240a8 8 0 0 1 5.657 2.343l96 96a8 8 0 0 1 2.343 5.657v136h20a8 8 0 0 1 6.092 2.814zm-142.092-47.9v32h64v-32zm-32-184a24.027 24.027 0 0 0 24 24h44.687l-68.687-68.687zm-40 168h120v-128h-56a40.045 40.045 0 0 1 -40-40v-56h-232a24.028 24.028 0 0 0 -24 24v400a24.028 24.028 0 0 0 24 24h200v-216a8 8 0 0 1 8-8zm152 112h-96v112h96zm48-39.965-47.7-56.035h-.3v40a8 8 0 0 1 -8 8h-80a8 8 0 0 1 -8-8v-40h-48v208h32v-120a8 8 0 0 1 8-8h112a8 8 0 0 1 8 8v120h32z" fill="url(#JShine)"/></svg>