<?xml version="1.0"?>
<svg xmlns="http://www.w3.org/2000/svg" xmlns:xlink="http://www.w3.org/1999/xlink" id="Gradient" viewBox="0 0 512 512" width="512" height="512"><defs><linearGradient id="JShine" x1="256" y1="496" x2="256" y2="16" gradientUnits="userSpaceOnUse"><stop offset="0" stop-color="#12c2e9"/><stop offset="0.056" stop-color="#19bfe9"/><stop offset="0.137" stop-color="#2db6ea"/><stop offset="0.235" stop-color="#4da7ea"/><stop offset="0.344" stop-color="#7993eb"/><stop offset="0.462" stop-color="#b279ed"/><stop offset="0.497" stop-color="#c471ed"/><stop offset="1" stop-color="#f64f59"/></linearGradient></defs><path d="M160,160H352a8,8,0,0,1,0,16H160a8,8,0,0,1,0-16ZM80,224H240a8,8,0,0,0,0-16H80a8,8,0,0,0,0,16Zm192,32H208a8,8,0,0,0,0,16h64a8,8,0,0,0,0-16Zm-48,48H80a8,8,0,0,0,0,16H224a8,8,0,0,0,0-16ZM80,176h48a8,8,0,0,0,0-16H80a8,8,0,0,0,0,16Zm272,32H272a8,8,0,0,0,0,16h80a8,8,0,0,0,0-16ZM80,272h96a8,8,0,0,0,0-16H80a8,8,0,0,0,0,16ZM208,400H176a8,8,0,0,0,0,16h32a8,8,0,0,0,0-16Zm-64,0H80a8,8,0,0,0,0,16h64a8,8,0,0,0,0-16ZM80,368h48a8,8,0,0,0,0-16H80a8,8,0,0,0,0,16Zm0-240h96a8,8,0,0,0,0-16H80a8,8,0,0,0,0,16ZM208,352H160a8,8,0,0,0,0,16h48a8,8,0,0,0,0-16ZM482.062,487.8a24,24,0,0,1-33.867,2.257L408,454.89V456a40.045,40.045,0,0,1-40,40H64a40.045,40.045,0,0,1-40-40V56A40.045,40.045,0,0,1,64,16H304a8,8,0,0,1,5.657,2.343l96,96A8,8,0,0,1,408,120V325.462a87.878,87.878,0,0,1,12.151,76.281L479.8,453.938a24,24,0,0,1,2.258,33.866Zm-78.676-86.381a72.091,72.091,0,1,0-15.613,24.612A71.745,71.745,0,0,0,403.386,401.423ZM312,88a24.027,24.027,0,0,0,24,24h44.687L312,43.313Zm80,368V443.876A87.157,87.157,0,0,1,336,464a88,88,0,1,1,56-155.833V128H336a40.045,40.045,0,0,1-40-40V32H64A24.028,24.028,0,0,0,40,56V456a24.028,24.028,0,0,0,24,24H368A24.028,24.028,0,0,0,392,456Zm79.982,15.468a7.949,7.949,0,0,0-2.714-5.489L413.68,417.34a87.188,87.188,0,0,1-8.866,13.5l53.917,47.178a8,8,0,0,0,13.251-6.553Zm-99.176-77.861a8,8,0,0,0-11.2,1.591,32,32,0,1,1-44.8-44.8A8,8,0,0,0,307.19,337.6,48,48,0,1,0,374.4,404.809,8,8,0,0,0,372.806,393.607Z" style="fill:url(#JShine)"/></svg>
