<?xml version="1.0"?>
<svg xmlns="http://www.w3.org/2000/svg" xmlns:xlink="http://www.w3.org/1999/xlink" id="Gradient" viewBox="0 0 512 512" width="512" height="512"><defs><linearGradient id="JShine" x1="256" y1="496" x2="256" y2="32" gradientUnits="userSpaceOnUse"><stop offset="0" stop-color="#12c2e9"/><stop offset="0.056" stop-color="#19bfe9"/><stop offset="0.137" stop-color="#2db6ea"/><stop offset="0.235" stop-color="#4da7ea"/><stop offset="0.344" stop-color="#7993eb"/><stop offset="0.462" stop-color="#b279ed"/><stop offset="0.497" stop-color="#c471ed"/><stop offset="1" stop-color="#f64f59"/></linearGradient></defs><path d="M152,160H296a8,8,0,0,1,0,16H152a8,8,0,0,1,0-16ZM72,224H200a8,8,0,0,0,0-16H72a8,8,0,0,0,0,16Zm176,32H200a8,8,0,0,0,0,16h48a8,8,0,0,0,0-16Zm-80,48H72a8,8,0,0,0,0,16h96a8,8,0,0,0,0-16ZM72,176h48a8,8,0,0,0,0-16H72a8,8,0,0,0,0,16Zm192,32H232a8,8,0,0,0,0,16h32a8,8,0,0,0,0-16Zm-96,48H72a8,8,0,0,0,0,16h96a8,8,0,0,0,0-16Zm-48,96H72a8,8,0,0,0,0,16h48a8,8,0,0,0,0-16ZM72,128h96a8,8,0,0,0,0-16H72a8,8,0,0,0,0,16Zm96,224H152a8,8,0,0,0,0,16h16a8,8,0,0,0,0-16Zm328-40V488a8,8,0,0,1-8,8H216a8,8,0,0,1-8-8V448H56a40.045,40.045,0,0,1-40-40V72A40.045,40.045,0,0,1,56,32H264a8,8,0,0,1,5.657,2.343l80,80A8,8,0,0,1,352,120v80.2a156.588,156.588,0,0,1,40-7.951V176a8,8,0,0,1,13.207-6.074l56,48a8,8,0,0,1,0,12.148l-56,48A8,8,0,0,1,392,272V256.146a341.888,341.888,0,0,0-40,4.068V304H488A8,8,0,0,1,496,312Zm-259.827,8L352,429.014,467.827,320Zm70.133-66.955C325.781,248.277,364.675,240,400,240a8,8,0,0,1,8,8v6.606L443.708,224,408,193.394V200a8,8,0,0,1-8,8C362.133,208,316.915,227.842,306.306,253.045ZM272,88a24.027,24.027,0,0,0,24,24h28.687L272,59.313ZM216,304H336V263c-21.708,4.146-37.51,8.612-37.8,8.695A8,8,0,0,1,288,264c0-19.46,13.492-37.991,37.991-52.178,3.2-1.855,6.557-3.587,10.009-5.211V128H296a40.045,40.045,0,0,1-40-40V48H56A24.027,24.027,0,0,0,32,72V408a24.027,24.027,0,0,0,24,24H208V312A8,8,0,0,1,216,304Zm264,26.516L357.483,445.826a8,8,0,0,1-10.966,0L224,330.516V480H480Z" style="fill:url(#JShine)"/></svg>
