<svg id="Gradient" height="512" viewBox="0 0 512 512" width="512" xmlns="http://www.w3.org/2000/svg" xmlns:xlink="http://www.w3.org/1999/xlink"><linearGradient id="JShine" gradientUnits="userSpaceOnUse" x1="256" x2="256" y1="496" y2="16"><stop offset="0" stop-color="#12c2e9"/><stop offset=".056" stop-color="#19bfe9"/><stop offset=".137" stop-color="#2db6ea"/><stop offset=".235" stop-color="#4da7ea"/><stop offset=".344" stop-color="#7993eb"/><stop offset=".462" stop-color="#b279ed"/><stop offset=".497" stop-color="#c471ed"/><stop offset="1" stop-color="#f64f59"/></linearGradient><path d="m80 216a8 8 0 0 1 8-8h160a8 8 0 0 1 0 16h-160a8 8 0 0 1 -8-8zm8-88h96a8 8 0 0 0 0-16h-96a8 8 0 0 0 0 16zm192 128h-64a8 8 0 0 0 0 16h64a8 8 0 0 0 0-16zm-120-88a8 8 0 0 0 8 8h192a8 8 0 0 0 0-16h-192a8 8 0 0 0 -8 8zm-72 104h96a8 8 0 0 0 0-16h-96a8 8 0 0 0 0 16zm272-64h-80a8 8 0 0 0 0 16h80a8 8 0 0 0 0-16zm-272-32h48a8 8 0 0 0 0-16h-48a8 8 0 0 0 0 16zm320 160h-64a8 8 0 0 0 0 16h44.687l-66.344 66.343a8 8 0 0 0 11.314 11.314l66.343-66.344v44.687a8 8 0 0 0 16 0v-64a8 8 0 0 0 -8-8zm-176-32h-144a8 8 0 0 0 0 16h144a8 8 0 0 0 0-16zm248 80a112.127 112.127 0 0 1 -112 112h-296a40.045 40.045 0 0 1 -40-40v-400a40.045 40.045 0 0 1 40-40h240a8 8 0 0 1 5.657 2.343l96 96a8 8 0 0 1 2.343 5.657v162.821a112.141 112.141 0 0 1 64 101.179zm-160-296a24.027 24.027 0 0 0 24 24h44.687l-68.687-68.687zm-9.631 392a111.987 111.987 0 0 1 89.631-203.334v-148.666h-56a40.045 40.045 0 0 1 -40-40v-56h-232a24.028 24.028 0 0 0 -24 24v400a24.028 24.028 0 0 0 24 24zm153.631-96a96 96 0 1 0 -96 96 96.108 96.108 0 0 0 96-96zm-248-32h-48a8 8 0 0 0 0 16h48a8 8 0 0 0 0-16zm-128 16h48a8 8 0 0 0 0-16h-48a8 8 0 0 0 0 16zm128 32h-32a8 8 0 0 0 0 16h32a8 8 0 0 0 0-16zm-64 0h-64a8 8 0 0 0 0 16h64a8 8 0 0 0 0-16z" fill="url(#JShine)"/></svg>