<svg id="Gradient" height="512" viewBox="0 0 512 512" width="512" xmlns="http://www.w3.org/2000/svg" xmlns:xlink="http://www.w3.org/1999/xlink"><linearGradient id="JShine" gradientUnits="userSpaceOnUse" x1="256" x2="256" y1="496" y2="16"><stop offset="0" stop-color="#12c2e9"/><stop offset=".056" stop-color="#19bfe9"/><stop offset=".137" stop-color="#2db6ea"/><stop offset=".235" stop-color="#4da7ea"/><stop offset=".344" stop-color="#7993eb"/><stop offset=".462" stop-color="#b279ed"/><stop offset=".497" stop-color="#c471ed"/><stop offset="1" stop-color="#f64f59"/></linearGradient><path d="m400 168a8 8 0 0 1 -8 8h-192a8 8 0 0 1 0-16h192a8 8 0 0 1 8 8zm-120 40h-160a8 8 0 0 0 0 16h160a8 8 0 0 0 0-16zm-160-32h48a8 8 0 0 0 0-16h-48a8 8 0 0 0 0 16zm272 32h-80a8 8 0 0 0 0 16h80a8 8 0 0 0 0-16zm-272-80h96a8 8 0 0 0 0-16h-96a8 8 0 0 0 0 16zm376 136v224a8 8 0 0 1 -8 8h-464a8 8 0 0 1 -8-8v-224a8 8 0 0 1 8-8h40v-200a40.045 40.045 0 0 1 40-40h240a8 8 0 0 1 5.657 2.343l96 96a8 8 0 0 1 2.343 5.657v136h40a8 8 0 0 1 8 8zm-144-176a24.027 24.027 0 0 0 24 24h44.687l-68.687-68.686zm-272 168h352v-128h-56a40.045 40.045 0 0 1 -40-40v-56h-232a24.027 24.027 0 0 0 -24 24zm400 16h-448v208h448zm-296 104v-48a8 8 0 0 1 8-8h128a8 8 0 0 1 8 8v48a8 8 0 0 1 -8 8h-128a8 8 0 0 1 -8-8zm16-8h112v-32h-112z" fill="url(#JShine)"/></svg>