<?xml version="1.0"?>
<svg xmlns="http://www.w3.org/2000/svg" xmlns:xlink="http://www.w3.org/1999/xlink" id="Gradient" viewBox="0 0 512 512" width="512" height="512"><defs><linearGradient id="JShine" x1="256" y1="496" x2="256" y2="16" gradientUnits="userSpaceOnUse"><stop offset="0" stop-color="#12c2e9"/><stop offset="0.056" stop-color="#19bfe9"/><stop offset="0.137" stop-color="#2db6ea"/><stop offset="0.235" stop-color="#4da7ea"/><stop offset="0.344" stop-color="#7993eb"/><stop offset="0.462" stop-color="#b279ed"/><stop offset="0.497" stop-color="#c471ed"/><stop offset="1" stop-color="#f64f59"/></linearGradient></defs><path d="M168,160H360a8,8,0,0,1,0,16H168a8,8,0,0,1,0-16ZM88,224H248a8,8,0,0,0,0-16H88a8,8,0,0,0,0,16Zm192,32H216a8,8,0,0,0,0,16h64a8,8,0,0,0,0-16Zm-48,48H88a8,8,0,0,0,0,16H232a8,8,0,0,0,0-16ZM88,176h48a8,8,0,0,0,0-16H88a8,8,0,0,0,0,16Zm272,32H280a8,8,0,0,0,0,16h80a8,8,0,0,0,0-16ZM88,272h96a8,8,0,0,0,0-16H88a8,8,0,0,0,0,16ZM216,400H184a8,8,0,0,0,0,16h32a8,8,0,0,0,0-16Zm-64,0H88a8,8,0,0,0,0,16h64a8,8,0,0,0,0-16ZM88,368h48a8,8,0,0,0,0-16H88a8,8,0,0,0,0,16Zm0-240h96a8,8,0,0,0,0-16H88a8,8,0,0,0,0,16ZM216,352H168a8,8,0,0,0,0,16h48a8,8,0,0,0,0-16Zm144-24v80a8,8,0,0,0,16,0V328a8,8,0,0,0-16,0Zm8,104a8,8,0,1,0,8,8A8,8,0,0,0,368,432Zm48-312V282.772A112.022,112.022,0,0,1,368,496H72a40.045,40.045,0,0,1-40-40V56A40.045,40.045,0,0,1,72,16H312a8,8,0,0,1,5.657,2.343l96,96A8,8,0,0,1,416,120ZM320,88a24.027,24.027,0,0,0,24,24h44.687L320,43.313Zm-9.631,392A112.017,112.017,0,0,1,400,276.633V128H344a40.045,40.045,0,0,1-40-40V32H72A24.028,24.028,0,0,0,48,56V456a24.028,24.028,0,0,0,24,24ZM368,288a96,96,0,1,0,66.461,26.726A96.108,96.108,0,0,0,368,288Z" style="fill:url(#JShine)"/></svg>
