<svg id="Gradient" height="512" viewBox="0 0 512 512" width="512" xmlns="http://www.w3.org/2000/svg" xmlns:xlink="http://www.w3.org/1999/xlink"><linearGradient id="JShine" gradientUnits="userSpaceOnUse" x1="256" x2="256" y1="496" y2="16"><stop offset="0" stop-color="#12c2e9"/><stop offset=".056" stop-color="#19bfe9"/><stop offset=".137" stop-color="#2db6ea"/><stop offset=".235" stop-color="#4da7ea"/><stop offset=".344" stop-color="#7993eb"/><stop offset=".462" stop-color="#b279ed"/><stop offset=".497" stop-color="#c471ed"/><stop offset="1" stop-color="#f64f59"/></linearGradient><path d="m349.657 18.343a8 8 0 0 0 -5.657-2.343h-240a40.045 40.045 0 0 0 -40 40v400a40.045 40.045 0 0 0 40 40h304a40.045 40.045 0 0 0 40-40v-336a8 8 0 0 0 -2.343-5.657zm2.343 24.97 68.687 68.687h-44.687a24.027 24.027 0 0 1 -24-24zm-136 292.687h-16v-16h16zm5.479 42.805a8 8 0 0 0 .842 1.952 11.352 11.352 0 0 1 1.679 5.91c0 7.352-7.178 13.333-16 13.333s-16-5.981-16-13.333a11.346 11.346 0 0 1 1.679-5.909 8.009 8.009 0 0 0 .842-1.953l7.54-26.805h11.878zm210.521 77.195a24.028 24.028 0 0 1 -24 24h-304a24.028 24.028 0 0 1 -24-24v-400a24.028 24.028 0 0 1 24-24h96v32h-16a8 8 0 0 0 0 16h16v32h-16a8 8 0 0 0 0 16h16v32h-16a8 8 0 0 0 0 16h16v32h-16a8 8 0 0 0 0 16h16v32h-16a8 8 0 0 0 0 16h16v32h-8a8 8 0 0 0 -8 8v32a7.966 7.966 0 0 0 2.156 5.451l-6.771 24.075a27.447 27.447 0 0 0 -3.385 13.141c0 16.174 14.355 29.333 32 29.333s32-13.159 32-29.333a27.446 27.446 0 0 0 -3.385-13.14l-6.771-24.076a7.966 7.966 0 0 0 2.156-5.451v-32a8 8 0 0 0 -8-8h-8v-32h16a8 8 0 0 0 0-16h-16v-32h16a8 8 0 0 0 0-16h-16v-32h16a8 8 0 0 0 0-16h-16v-32h16a8 8 0 0 0 0-16h-16v-32h16a8 8 0 0 0 0-16h-16v-32h120v56a40.045 40.045 0 0 0 40 40h56z" fill="url(#JShine)"/></svg>